<?xml version="1.0" encoding="UTF-8"?>
<svg id="Calque_1" data-name="Calque 1" xmlns="http://www.w3.org/2000/svg" viewBox="0 0 1000 1000">
  <defs>
    <style>
      .cls-1 {
        fill: #fff;
      }
    </style>
  </defs>
  <path class="cls-1" d="M1000,0v1000H0V0h1000ZM841.57,108.45c-6.25-2.64-15.22-3.66-22.03-2.4-13.42,2.47-20.15,31.77-25.65,42.12s-17.85,20.45-17.91,32.14c-3.52,2.68-4.31,9.1-9.73,4.23,2.59-5.54-.51-10.3-1.18-15.12-1.23-8.89-.22-13.4-6.13-21.64-5.21-7.27-26.3-13.18-31.93-6.26-2.36,2.9-.99,18.39.49,22.48,1.27,3.49,5.34,7.61,6.42,9.84,1.36,2.78,4.81,12.72,3.58,15.17-2.5,4.99-9.09-1.34-13.08-1.93-4.7-.7-20.45-1.18-24.65.22s-8.17,8.83-10.17,12.83c-7.43,14.9-8.16,28.01-18.66,41.11-2.72,3.39-14.71,15.47-18.03,17.19-11.16,5.8-11.57-7.06-14.51-13.34-4.89-10.44-12.59-19.25-17.54-29.27-1.68-3.4-3-7.78-6.27-10.39-11.8-9.44-18.64-19.49-30.37-29.1-30.69-25.15-56.96-38.62-96.71-43.35-21.91-2.61-37.5-.53-59,2.06-7.97.96-13.1-.76-21.77,2.05-27.69,8.99-55.55,22.24-75.74,44.4-5.45,5.99-11.01,12.61-15.47,19.57-7.73,12.06-14.29,30.21-24.9,39.59-5.37,4.75-7.59,3.95-12.66-.14-23.1-18.62-30.59-39.98-40.65-64.84-2.41-5.95-4.47-10.42-9.79-14.67-8.96-7.16-18.75-8.13-29.47-4.43-12.07,4.17-34.09,30.61-36.02,42.98-.37,2.37-.51,11.65-.02,13.74.16.67,1.49.62,1.85,1.52,8.28,20.09,41.63,25.02,60,34.8,11.46,6.1,27.96,22.53,33,34.21,7.62,17.64-6.66,39.51-11.62,56.96-3.31,11.66-5.46,25.86-8.33,38.67-1.69,7.54-3.18,20.68-7.53,26.47-2.35,3.12-6.84,5.11-9.42,7.58-9.11,8.75-18.61,17.17-27.57,25.95-4.91,4.8-23.76,22.8-26.06,26.9-5.66,10.09-8.41,36.69-10.58,48.93-3.14,17.65-5.67,36.05-9.49,53.51s-11.13,36.61-12.26,53.74c-1.05,15.77-2.1,28.51-3.93,44.07-2.73,23.34,17.36,66.98,35.41,82.39,8.85,7.55,16.99,13.14,28.24,10.25,1.73-.44,3.53-.2,5.28-.21-1.32-4.24,1.58-7.13,2.05-10.45,1.07-7.71-.13-16.46-2.97-23.18-1.21-2.86-4.98-3.15-3.08-9.37l11.85-1.17c.12-1.95,1.84-3.7,2.1-5.4,1.27-8.28-2.32-23.69-3.89-31.99-3.66-19.31-4.73-45.84-12.19-63.6-1.33-3.17-7.23-10.27-7.82-13.39-2.55-13.65,2.16-27.75,5.69-40.23,5.77-20.42,10.18-38.67,14.21-59.77.4-2.08-.21-4.34.31-6.71.93-4.23,8.25-6.72,11.65-9.33,2.07-1.59,13.74-12.35,15.06-11.4,1.57,2.96,1.62,6.89,2.83,9.69,3.98,9.22,10.99,16.99,15.82,25.66,11.06,19.86,21.42,41.34,32.49,60.81,3.31,5.83,6.84,6.47,5.96,15.41-1.98,20.06-6.89,40.21-10.02,59.97-2.18,13.75-5.22,30.16-6.05,43.95-1.71,28.25,4.97,80.05-1.94,104.09-.36,1.26.39,3.58-.2,4.28-7.94,3.95-16.23,6.16-25.3,5.08-17.75-2.11-40.41-3.99-58,.11-.75.18-5.34,1.92-5.79,2.21-4.55,2.87-2.86,5.94-4.07,9.49-1.29,3.79-16.46,4.82-17.76,17.68-.26,2.58-.37,10.74,2.04,12.09,1.69.95,3.68.12,5.3.53.73.18,10.04,6.15,12.87,7.31,20.43,8.34,37.39,4.59,57.3,8.7,16.81,3.47,16.23,7.77,35.81,3.7,15.77-3.28,31.35-7.4,45.57-13.63,8.98-3.94,15.87-5.65,16.21-17.68s-6.2-16.89-10.46-26.51c-9.9-22.35-1.98-58.63-4.52-83.48-2.1-20.54-3.63-20.81,3.16-40.74,4.98-14.62,10.16-30.31,15.08-43.95,2.07-5.75,3.9-12.34,6.04-17.95.51-1.34,1.36-3.85,3.13-3.89,4.48-.1,11.87,7.29,16.24,9.88,32.16,19.07,62.07,24.24,97.75,29.25,17.3,2.43,40.63-2.39,58.1-.1,5.72.75,8.38,11.59,10.17,16.83.58,1.69-.03,3.76.56,5.44,4.43,12.62,12.93,20.74,3.74,34.03-1.09,1.57-3.82,3.41-5.42,5.84-20.17,30.54-30.62,60.14-54.62,88.39-6.35,7.48-17.98,16.58-21.88,25.11-6.96,15.18-3.95,30.93,12.39,37.42,21.4,8.5,45.04,11.24,67.07,14.93,29.97,5.02,56.71,11.28,87.95,11.14,6.56-.03,18.74-1.29,24.04-5.05,1.87-1.33,4.78-6.36,6.79-7.66,4.7-3.04,8.28-.37,8.31-10.04.03-9.11-7.57-11.3-11.61-17.09-1.93-2.77-2.77-6.28-4.45-8.85-2.35-3.57-22.97-13.68-27.14-14.33-10.11-1.58-23.58,1.18-33.97-.03-5.68-.66-13.5-2.73-19.21-3.79-6.58-1.22-22.78-4.67-28.17-7.83-2.08-1.23-3.68-3.09-2.94-5.65,8.96-16.26,16.79-33.16,25.56-49.49.55-1.02,1.72-1.19,1.93-1.59.64-1.2.52-2.83,1.28-4.22,7.13-13.12,12.84-21.03,20.91-33.11,1.51-2.26,2.62-4.72,3.89-7.11-.97-17.61,2.2-38.59.34-55.8-.34-3.11-1.77-4.38-2.12-6.88-.31-2.2-.27-14.82.34-16.3.09-.21,3.11-3.02,3.31-3.13,19.28-10.77,46.99-22.13,62.38-37.61,10.41-10.48,22.58-24.28,28.89-37.36,2.79-5.77,6.15-14.74,7.91-20.9,2.66-9.3,2.06-19.65,4.27-29.71,2.37-10.76,8.45-24.41,9.9-35.1,1.66-12.18-1.6-27.93.01-39.99.24-1.77.95-3.55,2.16-4.84,2.75-2.91,23.4-7.93,29.02-9.98,27.71-10.13,56.17-22.74,82.7-34.51,10.86-4.81,17.29-3.84,17.78-18.8.43-13.29-5.14-17.61-9.97-28.47-9.66-21.73-21.21-44.73-28.96-66.01-1.33-3.64-4.1-7.42-3.78-11.34.4-4.9,7.12-8.66,10.05-12.28,14-17.31,27.03-36.7,39.62-55.15,13.69-20.06,18.06-31.07,23.47-54.53,1.88-8.15,6.3-12.49,3.39-22.49-3.06-10.54-14.11-6.03-21.99-6.99-1.67-.2-1.5-1.46-1.87-1.62Z"/>
  <path d="M841.57,108.45c.37.16.2,1.41,1.87,1.62,7.88.97,18.93-3.55,21.99,6.99s-1.51,14.34-3.39,22.49c-5.41,23.45-9.78,34.47-23.47,54.53-12.59,18.45-25.62,37.84-39.62,55.15-2.93,3.62-9.64,7.38-10.05,12.28-.32,3.92,2.45,7.7,3.78,11.34,7.74,21.27,19.3,44.27,28.96,66.01,4.83,10.86,10.4,15.19,9.97,28.47-.49,14.97-6.93,13.99-17.78,18.8-26.53,11.76-54.99,24.38-82.7,34.51-5.62,2.06-26.27,7.07-29.02,9.98-1.21,1.28-1.93,3.07-2.16,4.84-1.62,12.06,1.64,27.81-.01,39.99-1.45,10.69-7.53,24.34-9.9,35.1-2.21,10.06-1.62,20.41-4.27,29.71-1.76,6.16-5.12,15.12-7.91,20.9-6.32,13.08-18.48,26.88-28.89,37.36-15.39,15.49-43.1,26.84-62.38,37.61-.2.11-3.22,2.92-3.31,3.13-.61,1.47-.64,14.09-.34,16.3.35,2.5,1.79,3.77,2.12,6.88,1.86,17.21-1.31,38.19-.34,55.8-1.27,2.38-2.38,4.85-3.89,7.11-8.07,12.08-13.78,19.99-20.91,33.11-.76,1.39-.63,3.02-1.28,4.22-.22.4-1.38.57-1.93,1.59-8.78,16.34-16.61,33.24-25.56,49.49-.74,2.56.86,4.42,2.94,5.65,5.38,3.17,21.59,6.61,28.17,7.83,5.7,1.06,13.53,3.13,19.21,3.79,10.38,1.21,23.86-1.55,33.97.03,4.17.65,24.8,10.76,27.14,14.33,1.68,2.56,2.52,6.08,4.45,8.85,4.04,5.79,11.63,7.99,11.61,17.09-.03,9.67-3.61,7-8.31,10.04-2.02,1.31-4.92,6.33-6.79,7.66-5.31,3.76-17.48,5.02-24.04,5.05-31.23.15-57.98-6.11-87.95-11.14-22.02-3.69-45.67-6.43-67.07-14.93-16.34-6.49-19.35-22.24-12.39-37.42,3.91-8.53,15.53-17.63,21.88-25.11,24-28.24,34.45-57.85,54.62-88.39,1.61-2.43,4.34-4.27,5.42-5.84,9.19-13.3.69-21.41-3.74-34.03-.59-1.68.02-3.75-.56-5.44-1.79-5.24-4.46-16.08-10.17-16.83-17.47-2.28-40.81,2.53-58.1.1-35.68-5.01-65.59-10.18-97.75-29.25-4.36-2.59-11.76-9.98-16.24-9.88-1.78.04-2.62,2.55-3.13,3.89-2.14,5.61-3.97,12.2-6.04,17.95-4.92,13.65-10.1,29.33-15.08,43.95-6.79,19.92-5.25,20.2-3.16,40.74,2.54,24.85-5.38,61.13,4.52,83.48,4.26,9.62,10.82,13.97,10.46,26.51s-7.23,13.74-16.21,17.68c-14.22,6.24-29.8,10.36-45.57,13.63-19.58,4.07-19-.23-35.81-3.7-19.91-4.11-36.87-.37-57.3-8.7-2.84-1.16-12.15-7.12-12.87-7.31-1.61-.4-3.6.42-5.3-.53-2.41-1.35-2.31-9.51-2.04-12.09,1.3-12.85,16.48-13.89,17.76-17.68,1.2-3.54-.48-6.61,4.07-9.49.45-.29,5.04-2.03,5.79-2.21,17.59-4.1,40.24-2.22,58-.11,9.06,1.08,17.35-1.13,25.3-5.08.59-.71-.16-3.03.2-4.28,6.91-24.04.23-75.83,1.94-104.09.83-13.79,3.88-30.19,6.05-43.95,3.13-19.76,8.04-39.91,10.02-59.97.88-8.94-2.65-9.58-5.96-15.41-11.06-19.46-21.43-40.95-32.49-60.81-4.83-8.67-11.83-16.43-15.82-25.66-1.21-2.8-1.26-6.73-2.83-9.69-1.32-.95-12.99,9.81-15.06,11.4-3.4,2.61-10.72,5.09-11.65,9.33-.52,2.37.09,4.63-.31,6.71-4.03,21.1-8.45,39.36-14.21,59.77-3.53,12.48-8.24,26.58-5.69,40.23.58,3.12,6.49,10.23,7.82,13.39,7.46,17.76,8.53,44.29,12.19,63.6,1.57,8.3,5.16,23.7,3.89,31.99-.26,1.69-1.97,3.44-2.1,5.4l-11.85,1.17c-1.9,6.22,1.87,6.51,3.08,9.37,2.84,6.72,4.05,15.47,2.97,23.18-.46,3.32-3.37,6.21-2.05,10.45-1.75.01-3.55-.23-5.28.21-11.25,2.88-19.39-2.7-28.24-10.25-18.05-15.41-38.14-59.05-35.41-82.39,1.82-15.56,2.88-28.3,3.93-44.07,1.14-17.12,8.53-36.68,12.26-53.74s6.36-35.86,9.49-53.51c2.17-12.24,4.92-38.84,10.58-48.93,2.3-4.1,21.16-22.1,26.06-26.9,8.96-8.77,18.46-17.2,27.57-25.95,2.58-2.48,7.07-4.46,9.42-7.58,4.35-5.78,5.84-18.93,7.53-26.47,2.87-12.81,5.02-27.01,8.33-38.67,4.96-17.44,19.24-39.32,11.62-56.96-5.04-11.67-21.54-28.11-33-34.21-18.37-9.78-51.72-14.71-60-34.8-.37-.89-1.7-.85-1.85-1.52-.49-2.08-.35-11.36.02-13.74,1.93-12.37,23.95-38.81,36.02-42.98,10.72-3.7,20.51-2.73,29.47,4.43,5.33,4.26,7.39,8.72,9.79,14.67,10.06,24.86,17.55,46.21,40.65,64.84,5.07,4.09,7.29,4.89,12.66.14,10.62-9.38,17.18-27.54,24.9-39.59,4.46-6.96,10.02-13.59,15.47-19.57,20.19-22.16,48.05-35.42,75.74-44.4,8.67-2.81,13.79-1.09,21.77-2.05,21.5-2.59,37.09-4.67,59-2.06,39.75,4.73,66.02,18.2,96.71,43.35,11.73,9.61,18.57,19.66,30.37,29.1,3.26,2.61,4.59,6.99,6.27,10.39,4.95,10.01,12.64,18.83,17.54,29.27,2.94,6.28,3.34,19.14,14.51,13.34,3.33-1.73,15.32-13.81,18.03-17.19,10.5-13.1,11.23-26.21,18.66-41.11,1.99-4,5.89-11.41,10.17-12.83s19.95-.92,24.65-.22c3.98.6,10.57,6.92,13.08,1.93,1.23-2.45-2.23-12.38-3.58-15.17-1.08-2.22-5.15-6.35-6.42-9.84-1.48-4.08-2.85-19.57-.49-22.48,5.63-6.92,26.72-1.01,31.93,6.26,5.91,8.25,4.9,12.75,6.13,21.64.67,4.82,3.76,9.58,1.18,15.12,5.42,4.87,6.21-1.55,9.73-4.23.06-11.69,12.52-22.02,17.91-32.14s12.23-39.65,25.65-42.12c6.81-1.25,15.78-.24,22.03,2.4ZM832.89,113.11l-9.29-.18-1.53,3.63c-6.39.02-3.95,1.11-5.66,3.31-9.36,12.03-10.49,26.73-19.3,38.76-4.91,6.7-6.99,12.88-14.24,18.8-1.33,1.09-2.59,5.87-4.9,8.05-2.5,2.37-5.62,2.73-6.78,3.68-.12.1.85,2.55-.72,2.83-1.96.35-2.3-1.52-1.54-2.92-2.81.36-6.2-1.61-7.39-4.13-.92-1.96-3.7-12.02-4.3-14.7-1.42-6.34-.57-5.39-3.34-11.66-.65-1.47-.76-5.2-1.04-5.46-.42-.39-2.64.02-3.82-.65-5.6-3.2-6.85-7.65-16.07-5.48.54,3.25-.75,8.42,0,11.3.24.91,2.12,1.07,2.83,2.35.99,1.79.79,5.44,1.4,6.15.54.63,3.12.12,4.28,2.22,1.25,2.25,1.24,10.53,1.63,10.93l2.95.61.83,29.03-1.82,1.81c1.01,4.14,5.05,4.46,7.44,6.6,3.83,3.44,6.12,11.12-.25,12.78-9.35,2.44-33.53,3.21-37.71-7.82-1.7-4.48-3.23-22,1.42-24.51,2.02-.13,8.86,4.1,9.57,5.6,1.35,2.82-2.88,4.76-3.4,6.7-.64,2.41,2.2,9.94,4.11,11.03,1.38.79,3.46-.62,4.42,2.24l9.32-2-3.01-7.98h4.01s.06-3.96.06-3.96l2.93-.54c-5.07-4.5-10.46-9.61-16.79-12.21-2.36-.97-5-.87-7.41-1.59-4.42-1.31-6.54-4.44-13.09-2.5-3.82,1.13-6.11,8.19-9.45,10.02-5.44,21.01-12,37.09-27.68,52.4-2.22,2.16-6.36,4.94-8.55,6.92-1.07.97-.75,2.64-1.27,3.19-.46.49-10.59,3.61-12.07,3.23-.74-.19-.58-1.71-1.4-1.92-1.83-.49-4.96.31-6.69-.96-.9-.66-.37-2.25-.83-2.79-.89-1.04-3.34-.8-4.27-2.3-1.13-1.82-.62-6.05-1.73-8.31-.66-1.34-2.23-1.36-2.74-2.47-.75-1.63-.41-5.85-1.25-7-.59-.8-3.14-.63-4.25-2.25-1.27-1.86-.95-6.82-1.75-7.75-.39-.45-2.65-.5-3.88-1.6-1.63-1.46-1.52-3.76-2.2-4.37-.57-.51-2.12.16-2.73-.89-1.94-3.33.18-8.52-4.41-13.39-.79-.84-2.29-1.04-3.08-1.97-.88,1.44-.02,2.52-2.47,2.01l-1.03-4.01-2.98,1.01c1.57-4.42-.03-3.34-.57-4.41-2.13-4.21-4.47-3.65-5.18-4.85-2.84-4.76-1.65-2.42-4.32-5.42-.68-.77-2.68-6.05-3.01-6.27l-2.92.96c.76-3.99-2.47-3.31-3.61-4.41-2.29-2.23-4.77-3.63-6.1-4.84-1-.9-.64-2.77-1.52-3.53-1.04-.89-3.99-.55-5.13-1.19-.31-.17-1.94-3.32-4.5-4.94-4.82-3.07-6.4-3.95-10.32-7.87-.73-.73-17.08-6.27-19.19-7.19-1.18-.51-.3-2.32-.8-2.82-.67-.67-7.68-1.8-9.1-2.28-.97-.33-6.17-3.32-7.48-3.71-2.94-.87-8.11-.46-10.62-1.39s.95-1.37-4.82-2.11c-30.85-3.93-50.53-5.54-81.58,0-14.73,2.63-31.95,10.77-45.48,16.53-1.98.84-7.35,2.61-7.66,2.89-.36.32.31,2.26-.67,2.95-1.28.91-4.62.45-5.25,1.13-.38.41.09,1.88-.43,2.49-.58.68-6.39,2.74-7.02,3.22-4.6,3.54-8.32,9.5-11.68,12.61-1.36,1.26-3.26,1.17-3.78,1.69-.87.87-.54,4.27-1.78,5.74-.99,1.18-3.06,1.07-4.06,1.95-3.64,3.2-10.6,14.7-13.8,20.19-4.53,7.76-11.57,24.25-17.91,30.59-.61.61-2.34.51-3.2,1.26-3.53,3.11-5.62,5.68-10.97,6.09-9.71.74-13.09-6.4-18.92-11.65-8.41-7.58-12.92-10.47-18.82-20.72-4.44-7.72-6.8-12.16-8.98-20.91-.56-2.25-3.65-4.3-4.54-6.55-1.12-2.86-1.02-7.07-1.42-10.15-4.14.49-2.27-1.62-3.43-3.98-3.7-7.54-6.72-9.86-12.6-14.99-4.55,2.1-3.54-.87-4.5-1.11-1.14-.28-6.53-.31-7.63-.03-.92.24-.95,2.09-2.38,2.8-4.06,2-6.5,2.02-10.39,5.63-7.06,6.56-10.48,15.18-15.48,20.57-1.02,1.09-2.8.76-3.23,1.23-.76.82-3.65,14.13-3.18,16.09.17.71,1.59.67,1.88,1.48.65,1.81.3,4.63,1.61,6.2,2.48,2.97,12.1,6.51,15.69,8.11,11.69,5.22,25.01,9.93,36.34,15.85,14.55,7.6,24.62,16.63,33.8,30.2,1.59,2.36,3.69,7.19,5.06,9.59,7.65,13.44-.45,33.88-5.25,47.91-5.27,15.4-9.63,31.19-13.28,47.75-.57,2.59-2.18,4.93-2.78,8.22-1.76,9.72.82,19.27-6.67,27.37-1.52,1.65-6.77,4.82-8.49,6.47-9.33,8.92-19.15,18.61-26.34,26.66-2.18,2.43-8.38,6.37-11.26,9.25-4.84,4.83-10.08,12.17-14.9,16.69-1.12,1.05-2.38-.16-2.44-.05-.33.63.32,3,0,4.35-.19.78-1.93.61-1.89,1.08.51,6.84-.24,4.13-1.69,9.48-3.6,13.34-5.68,31.54-7.39,44.5-1.51,11.47-3.88,27.55-6.08,39.03-1.15,5.98-5.31,14.27-6.51,20.5-1.02,5.27-.67,6.07-2.36,10.82-6.71,18.83-2.67,33.47-4.99,51.81-.24,1.91-1.92.95-2.16,2.87-2.6,20.62,4.47,45.97,13.29,63.89.69,1.41,2.39,1.34,2.77,2.43.44,1.27-.04,3.08.77,4.99,1.94,4.6,7.31,5.42,8.27,6.64,1.51,1.94,1.46,5.57,2.24,6.36,2.06,2.08,9.83,6.21,12.64,7.86,2.39,1.41,11.22,8.19,13.1,3.88.86-1.98-2.26-1.64-2.98-3l3.06-2.03c.68-5.76-.8-10.04-2.14-15.41l-2.44.05c.35-8.36-5.01-6.55-7.49-9.61-1.18-1.46-3.26-7.59-4.26-9.23-.45-.74-2.5-.81-3.24-2.25s-6.33-23.79-6.43-25.67c-.34-6.44,1.86-7.6,3.65-12.11.54-1.37,1.59-7.35,2.43-8.05l3.71.02c-.49,2.46,2.01,2.64,2.21,4.25.65,5.26-.73,15.65.08,19.82.48,2.44,7.56,13.56,9.93,15.15,2.97,1.98,7.77,3.21,10.42,6.58.73-.1.96-1.89.96-2.5.09-9.63.02-16.49-3.08-24.86-2.61-7.03-.83-6.49-1.28-12.15-.57-7.14-3.53-18.91-4.83-26.26-1.42-8.03-3.43-15.56-4.2-23.68-5.03-.34-2.56-4.38-4.29-7.87-.68-1.37-4.98-6.05-5.76-7.45-1.99-3.58.41-9.01-3.03-12.22l3.08-.56c.06-3.62-.35-7.3-.03-10.9.69-7.74,4.8-14.12,5.93-19.25.73-3.29-.05-8.94.98-12.69l2.93-.67c.42-1.76-.23-3.63.16-5.4.88-4.05,2.85-8.1,3.77-11.23,1.76-5.98,4.22-19.69,5.11-25.89s1.41-12.49,1.01-18.8c3.76-2.75,8.61-4.94,12.32-7.6,8.75-6.3,17.16-14.94,26.38-20.45.68-.41.38-3.57,3.37-.06-2.69.38-2.6,4.52-2.01,6.8.27,1.05,2.41.96,2.87,2.31.81,2.37-.53,5.41.68,8.35,1.63,3.98,7.05,10.07,9.14,13.41,13.57,21.8,24.67,47.39,37.42,68.83,7.45,12.53,10.44,8.71,9.96,26.33-.22,7.94-3.01,13.94-3.99,20.01-1.83,11.34-1.98,22.4-4.11,33.89-1.46,7.86-3.27,17.43-4.91,24.25-1.55,6.42-1.97,21.11-1.97,26.75s-.61,10.81-.95,16.12c-.03.51,1.74-.04,1.97,1.86,2.21,18.12-1.14,38.26-1.72,56.23-.35,10.86,2.35,15.9-1.53,26.7-1.55,4.31.16,10.66-5.69,12.29-5.68,5.01-19.81,6.74-27.67,6.39-7.61-.34-12.31-4.39-22.04-3.12-1.79.23-1.11,3.02-6.98,2.12-2.24-.34-3.42-1.74-5-2-6.78-1.09-11.03,1.24-17.23,2.67-3.56.82-8.87-1.09-9.22,4.27l3.99,2c-3.82-.84-2.85,2.64-5.43,5.08-3.71,3.5-9.49,3.97-11.62,5.41-.92.62-.68,2.59-1.27,3.19-2.19,2.23-5.72,2.48-4.68,7.32,6.42-2.09,9.24,3.6,13.79,5.92,11.22,5.75,19.02,2.86,28.53,5.1.83.19.34,2.03,2.16,2.1,3.12.13,4.55-2.11,7.06-2.23,1.87-.09.89,1.92,2.9,2.19,4.17.56,8.12-2,8.86-1.88,2.5.38,16.74,4.66,18.95,5.82,1.12.58,1.11,2.39,2.39,2.83,1.53.53,13.71.52,15.91.25s1.56-2.42,3.09-2.93c13.48-4.47,31.11-5.64,45.59-11.25.35-.14,6.19-3,6.5-3.21,3.58-2.46,5.21-8.96,4.36-13.15l-2.94-.63c1.65-6-5.67-10.08-6.9-13.66-2.81-8.17-2.52-16.72-4.25-24.59-.18-.8-1.82-.26-2.06-2.11-.86-6.57-.88-30.62.03-37.12.43-3.1,4.79-7.42.03-8.94v-2.02c4.03-.95.42-2.66-.04-5.93-1.82-13.09-.72-39.25,3.32-51.79.44-1.36,2.08-2.38,2.72-4.28,7.19-21.18,14.13-45.01,22.93-63.26,1.6-3.33,3.37-6.92,4.08-10.61,1.53-3.09,4.93,4.67,5.7,5.41,1.25,1.2,6.87,4.56,8.88,5.87,25.94,16.92,62.24,28.84,92,33.11,2.51.36,5.69-1.45,8.95-1.08,15.92,1.77,42.05,4.35,58.03,2.13,3.39-.47,6.33-3.78,10.47-1.56.68.35,3.97,7.04,4.53,8.47,2.88,7.43,4.23,17.44,6.91,25.09,1.35,3.87,6.46,11.79,7.34,15.66,1.19,5.21.78,16.98-5.73,18.42,2.7,5.23-2.16,4.51-4.13,6.54-3.44,3.53-8.1,15.73-11.89,20.87-1.01,1.37-2.39,2.09-3.96,2.6l.93,3.86-2.81.14c-.64,7.57-6.77,12.46-7.4,19.72-3.88-.56-3.95,6.54-5.57,9.86-9.91,20.25-29.01,35.89-42.76,53.24-4.66,5.88-8.54,13.6-6.25,21.34.16.53,6.56,8.19,7.04,8.46,2.14,1.24,12.56,1.47,16.75,2.92,1.48.51,3.49,1.87,5.73,2.76,15.49,6.1,37.32,4.63,52.73,8.65,28.67,7.47,55.97,11.6,86.09,10.86,2.03-.05,4.3.94,5.78.74.44-.06,8.22-2.51,8.5-2.86.43-.54.1-2.54.7-3.75.51-1.04,2.23-1.83,2.4-2.7.29-1.42-3.51-3.29-.96-4.9,4.47-2.82,4.14,4.09,9.03,2.52-.48-4.08-4.23-5.64-6.68-8.3-5.36-5.83-4.46-5.83-7.9-12.62-3.74-7.39-7.17-5.43-12.68-7.31-4.26-1.46-11.75-7.78-17.3-8.7-14.35-2.37-34.2,2.47-48.72-1.1-1.12-.28-10.5-4.88-11.16-4.84-6.53.42-18.66-3.82-23.28-8.46-.58-.58-.17-2.8-2.28-3.23-.76-2.91,1.66-2,1.96-3.13,4.26-15.95,12.7-28.06,20.22-42.62,8.32-16.1,15.57-34.05,25.79-48.18,1.87-2.58,5.23-4.87,7.02-8,3.66-6.37,1.7-11.92,1.96-19.04.67-18.38-1.5-31.99-4.01-49.91-.23-1.68-.18-13.79.21-14.4,4.87-.88,8.54-7.85,12.83-5.14.17-5.85,4.44-4.25,7.45-6.12,7.6-4.7,8.62-6.45,17.87-9.09,1.36-.39,11.54-8.04,13.77-9.23,1.9-1.01,5.62-.93,6.69-1.81.82-.68.78-2.88,1.71-3.78,1.3-1.27,3.49-.68,4.56-1.48,1.32-.97,4.56-6.86,5.53-8.44,1.9-3.1,10.56-9.02,13.68-12.1,4.39-4.33,3.69-5.44,5.99-10.24,1.02-2.14,3.41-3.11,4.23-4.76,1.37-2.76,2.51-8,1.55-10.96l2.98,2c.24-2.08.31-5.54,1.22-7.33,1.47-2.9,3.72-5.46,4.73-9.24,1.93-7.18,2.41-18.6,4-26.99.65-3.43.61-8.25,1-11.86l3.13-1.12c.03-1.57-.4-3.4-.03-4.91,1.4-5.56,4.93-14.8,5.92-19.26,2.23-10.05-.96-30.15,0-41.83.17-2.13.48-4.25,1.27-6.23,2.37-1.41,5.81-.66,8.03-1.29,3.96-1.13,3.26-4.6,11.3-4.06.37.02,1.82-3.54,6.39-1.98l.12-2.78c3.05-.19,6.2-.31,9.14-1.22,20.4-6.29,47.53-20.32,67.56-28.64,4.02-1.67,11.04-5.09,14.04-6.16,2.22-.79,6.63-.57,7.96-1.34.35-.21,4.91-6.06,5.03-6.46,2.59-8.62-6.22-18.63-9.53-26.06-1.05-2.37-1.8-5.07-2.88-7.6-.92-2.17-4.11-12.97-4.62-13.48s-2.3.38-2.81-.8c-2.87-6.63-5.76-14.55-6.97-21.36l-2.5.09c-1.15-5.74-3.38-10.17-5.48-15.61-2.91-7.53-6.12-13.83-7.96-22.04-.66-2.94.58-5.83-2.03-8.87l11.41-7.65c8.99-14.13,20.54-25.17,27.4-38.55,1.68-3.27,3.74-3.55,4.89-4.6,1.46-1.34,9.39-17.56,11.59-19.54,8-7.17,12.23-22.8,16.79-33.45.31-.73,1.57-.7,1.84-1.54,2.73-8.58-5.05-12.5.01-18.75l4.05.5c.49-4.16,1.67-8.17-.68-12.08-8.91-6.44-18.87,5.65-22.74,13.19-2.3,4.5-1.04,4.92-1.74,8.12-.63,2.88-7.13,11.43-8.58,14.48-.62,1.31-1.62,6.28-2.18,6.82-1.51,1.46-6.09,3.8-8.07,5.46-.38-3.34,2.37-5.31,3.31-8.18,2.59-7.96,3.47-8.87,6.6-15.6.88-1.89.53-4.39,1.05-5.57s2.35-.3,2.83-.78.12-2.55.77-3.76c2.96-5.46,6.51-6.3,6.52-13.6,0-2.18-.85-4.27-1.19-6.39Z"/>
  <path class="cls-1" d="M832.89,113.11c.34,2.12,1.19,4.2,1.19,6.39,0,7.3-3.56,8.14-6.52,13.6-.65,1.21-.27,3.25-.77,3.76s-2.31-.4-2.83.78-.17,3.69-1.05,5.57c-3.13,6.73-4.01,7.65-6.6,15.6-.94,2.87-3.68,4.85-3.31,8.18,1.98-1.65,6.55-4,8.07-5.46.57-.55,1.56-5.52,2.18-6.82,1.45-3.05,7.95-11.6,8.58-14.48.7-3.2-.56-3.62,1.74-8.12,3.86-7.54,13.83-19.63,22.74-13.19,2.35,3.91,1.17,7.92.68,12.08l-4.05-.5c-5.06,6.25,2.72,10.17-.01,18.75-.27.84-1.53.8-1.84,1.54-4.56,10.65-8.79,26.28-16.79,33.45-2.2,1.97-10.13,18.2-11.59,19.54-1.15,1.05-3.21,1.32-4.89,4.6-6.86,13.38-18.4,24.42-27.4,38.55l-11.41,7.65c2.61,3.04,1.38,5.92,2.03,8.87,1.83,8.21,5.04,14.51,7.96,22.04,2.1,5.44,4.33,9.87,5.48,15.61l2.5-.09c1.21,6.82,4.1,14.74,6.97,21.36.51,1.18,2.31.3,2.81.8s3.69,11.31,4.62,13.48c1.08,2.53,1.82,5.23,2.88,7.6,3.3,7.43,12.12,17.44,9.53,26.06-.12.39-4.68,6.25-5.03,6.46-1.33.77-5.75.55-7.96,1.34-3,1.07-10.02,4.49-14.04,6.16-20.03,8.32-47.16,22.35-67.56,28.64-2.94.91-6.09,1.03-9.14,1.22l-.12,2.78c-4.56-1.56-6.01,2.01-6.39,1.98-8.04-.54-7.34,2.94-11.3,4.06-2.21.63-5.66-.12-8.03,1.29-.79,1.98-1.1,4.1-1.27,6.23-.95,11.68,2.23,31.78,0,41.83-.99,4.45-4.52,13.7-5.92,19.26-.38,1.5.06,3.33.03,4.91l-3.13,1.12c-.39,3.61-.35,8.43-1,11.86-1.59,8.39-2.07,19.81-4,26.99-1.01,3.78-3.26,6.34-4.73,9.24-.91,1.78-.98,5.24-1.22,7.33l-2.98-2c.96,2.96-.18,8.2-1.55,10.96-.82,1.65-3.21,2.62-4.23,4.76-2.3,4.8-1.6,5.91-5.99,10.24-3.12,3.08-11.78,9-13.68,12.1-.97,1.58-4.21,7.47-5.53,8.44-1.08.79-3.26.21-4.56,1.48-.93.91-.89,3.11-1.71,3.78-1.06.88-4.79.8-6.69,1.81-2.23,1.19-12.41,8.84-13.77,9.23-9.25,2.65-10.27,4.39-17.87,9.09-3.01,1.86-7.28.27-7.45,6.12-4.28-2.7-7.95,4.26-12.83,5.14-.39.61-.45,12.72-.21,14.4,2.51,17.92,4.68,31.53,4.01,49.91-.26,7.12,1.7,12.67-1.96,19.04-1.8,3.12-5.16,5.42-7.02,8-10.23,14.13-17.47,32.08-25.79,48.18-7.52,14.55-15.96,26.66-20.22,42.62-.3,1.13-2.73.23-1.96,3.13,2.11.43,1.7,2.65,2.28,3.23,4.62,4.64,16.75,8.88,23.28,8.46.66-.04,10.04,4.56,11.16,4.84,14.52,3.57,34.38-1.27,48.72,1.1,5.55.92,13.05,7.24,17.3,8.7,5.51,1.88,8.94-.08,12.68,7.31,3.43,6.78,2.53,6.78,7.9,12.62,2.45,2.67,6.2,4.22,6.68,8.3-4.89,1.57-4.56-5.34-9.03-2.52-2.55,1.61,1.25,3.48.96,4.9-.18.87-1.9,1.66-2.4,2.7-.59,1.22-.27,3.22-.7,3.75-.28.35-8.06,2.8-8.5,2.86-1.48.2-3.75-.79-5.78-.74-30.12.74-57.42-3.39-86.09-10.86-15.42-4.02-37.24-2.55-52.73-8.65-2.25-.88-4.25-2.24-5.73-2.76-4.2-1.45-14.61-1.69-16.75-2.92-.48-.28-6.88-7.93-7.04-8.46-2.29-7.74,1.59-15.46,6.25-21.34,13.75-17.35,32.85-32.99,42.76-53.24,1.63-3.32,1.69-10.42,5.57-9.86.63-7.26,6.76-12.15,7.4-19.72l2.81-.14-.93-3.86c1.57-.51,2.95-1.23,3.96-2.6,3.79-5.14,8.46-17.34,11.89-20.87,1.98-2.03,6.83-1.31,4.13-6.54,6.51-1.44,6.92-13.21,5.73-18.42-.88-3.87-5.99-11.79-7.34-15.66-2.68-7.66-4.03-17.66-6.91-25.09-.55-1.42-3.85-8.12-4.53-8.47-4.14-2.22-7.07,1.09-10.47,1.56-15.98,2.22-42.11-.36-58.03-2.13-3.26-.36-6.44,1.44-8.95,1.08-29.76-4.27-66.05-16.2-92-33.11-2.02-1.32-7.64-4.67-8.88-5.87-.77-.74-4.17-8.5-5.7-5.41-.71,3.69-2.48,7.28-4.08,10.61-8.8,18.26-15.74,42.08-22.93,63.26-.65,1.9-2.28,2.92-2.72,4.28-4.04,12.55-5.14,38.7-3.32,51.79.45,3.27,4.07,4.98.03,5.93v2.02c4.77,1.52.41,5.84-.03,8.94-.91,6.5-.89,30.55-.03,37.12.24,1.86,1.89,1.32,2.06,2.11,1.74,7.86,1.44,16.41,4.25,24.59,1.23,3.57,8.55,7.66,6.9,13.66l2.94.63c.85,4.19-.78,10.69-4.36,13.15-.31.21-6.15,3.08-6.5,3.21-14.48,5.61-32.11,6.78-45.59,11.25-1.53.51-.83,2.65-3.09,2.93s-14.38.28-15.91-.25c-1.28-.44-1.27-2.24-2.39-2.83-2.21-1.15-16.45-5.44-18.95-5.82-.75-.11-4.7,2.45-8.86,1.88-2.01-.27-1.03-2.28-2.9-2.19-2.5.13-3.94,2.36-7.06,2.23-1.81-.07-1.33-1.91-2.16-2.1-9.52-2.24-17.31.65-28.53-5.1-4.54-2.33-7.37-8.01-13.79-5.92-1.03-4.85,2.5-5.09,4.68-7.32.59-.6.35-2.57,1.27-3.19,2.13-1.44,7.91-1.91,11.62-5.41,2.58-2.44,1.61-5.92,5.43-5.08l-3.99-2c.35-5.36,5.66-3.46,9.22-4.27,6.2-1.43,10.45-3.76,17.23-2.67,1.58.25,2.76,1.66,5,2,5.87.89,5.2-1.89,6.98-2.12,9.73-1.26,14.43,2.79,22.04,3.12,7.86.35,21.99-1.38,27.67-6.39,5.85-1.63,4.14-7.98,5.69-12.29,3.88-10.8,1.18-15.84,1.53-26.7.59-17.98,3.94-38.11,1.72-56.23-.23-1.91-2.01-1.35-1.97-1.86.34-5.32.95-10.58.95-16.12s.42-20.33,1.97-26.75c1.65-6.83,3.45-16.39,4.91-24.25,2.13-11.49,2.28-22.55,4.11-33.89.98-6.07,3.78-12.07,3.99-20.01.48-17.62-2.51-13.8-9.96-26.33-12.74-21.44-23.84-47.03-37.42-68.83-2.08-3.35-7.51-9.44-9.14-13.41-1.21-2.95.14-5.98-.68-8.35-.46-1.35-2.6-1.26-2.87-2.31-.58-2.28-.67-6.42,2.01-6.8-2.99-3.51-2.69-.34-3.37.06-9.21,5.5-17.63,14.15-26.38,20.45-3.7,2.67-8.55,4.85-12.32,7.6.39,6.31-.11,12.57-1.01,18.8s-3.35,19.91-5.11,25.89c-.92,3.13-2.88,7.19-3.77,11.23-.39,1.77.26,3.64-.16,5.4l-2.93.67c-1.03,3.75-.25,9.4-.98,12.69-1.13,5.13-5.24,11.51-5.93,19.25-.32,3.61.08,7.29.03,10.9l-3.08.56c3.44,3.21,1.04,8.64,3.03,12.22.78,1.4,5.08,6.08,5.76,7.45,1.73,3.49-.74,7.53,4.29,7.87.76,8.13,2.77,15.66,4.2,23.68,1.3,7.35,4.26,19.12,4.83,26.26.46,5.67-1.33,5.13,1.28,12.15,3.11,8.37,3.17,15.22,3.08,24.86,0,.61-.24,2.4-.96,2.5-2.64-3.38-7.45-4.6-10.42-6.58-2.37-1.59-9.45-12.7-9.93-15.15-.82-4.17.57-14.56-.08-19.82-.2-1.61-2.7-1.79-2.21-4.25l-3.71-.02c-.84.7-1.89,6.68-2.43,8.05-1.78,4.5-3.99,5.67-3.65,12.11.1,1.88,5.7,24.26,6.43,25.67s2.79,1.51,3.24,2.25c1,1.63,3.07,7.77,4.26,9.23,2.48,3.06,7.84,1.25,7.49,9.61l2.44-.05c1.33,5.37,2.81,9.65,2.14,15.41l-3.06,2.03c.72,1.36,3.85,1.01,2.98,3-1.88,4.31-10.7-2.47-13.1-3.88-2.8-1.65-10.58-5.78-12.64-7.86-.78-.79-.73-4.42-2.24-6.36-.96-1.23-6.33-2.04-8.27-6.64-.81-1.92-.33-3.72-.77-4.99-.38-1.1-2.07-1.02-2.77-2.43-8.82-17.92-15.89-43.28-13.29-63.89.24-1.91,1.92-.95,2.16-2.87,2.32-18.34-1.72-32.98,4.99-51.81,1.69-4.75,1.35-5.55,2.36-10.82,1.2-6.22,5.36-14.51,6.51-20.5,2.21-11.47,4.57-27.55,6.08-39.03,1.71-12.97,3.79-31.16,7.39-44.5,1.45-5.35,2.2-2.64,1.69-9.48-.04-.47,1.7-.3,1.89-1.08.33-1.35-.32-3.72,0-4.35.06-.11,1.32,1.1,2.44.05,4.82-4.53,10.07-11.87,14.9-16.69,2.88-2.87,9.08-6.81,11.26-9.25,7.19-8.04,17-17.73,26.34-26.66,1.73-1.65,6.97-4.83,8.49-6.47,7.49-8.09,4.9-17.64,6.67-27.37.6-3.29,2.21-5.63,2.78-8.22,3.65-16.56,8.01-32.35,13.28-47.75,4.8-14.03,12.91-34.47,5.25-47.91-1.37-2.4-3.47-7.23-5.06-9.59-9.17-13.57-19.25-22.6-33.8-30.2-11.33-5.92-24.65-10.64-36.34-15.85-3.59-1.6-13.21-5.14-15.69-8.11-1.31-1.57-.97-4.39-1.61-6.2-.29-.8-1.7-.77-1.88-1.48-.47-1.95,2.42-15.27,3.18-16.09.43-.46,2.21-.13,3.23-1.23,5.01-5.39,8.43-14.01,15.48-20.57,3.89-3.62,6.33-3.63,10.39-5.63,1.43-.71,1.46-2.56,2.38-2.8,1.1-.28,6.49-.25,7.63.03.96.24-.05,3.21,4.5,1.11,5.88,5.12,8.9,7.45,12.6,14.99,1.15,2.35-.71,4.47,3.43,3.98.4,3.07.29,7.29,1.42,10.15.88,2.25,3.98,4.3,4.54,6.55,2.19,8.75,4.54,13.18,8.98,20.91,5.9,10.26,10.42,13.15,18.82,20.72,5.83,5.25,9.22,12.39,18.92,11.65,5.36-.41,7.45-2.98,10.97-6.09.85-.75,2.59-.65,3.2-1.26,6.34-6.34,13.38-22.83,17.91-30.59,3.2-5.48,10.16-16.98,13.8-20.19,1-.88,3.06-.77,4.06-1.95,1.24-1.47.9-4.86,1.78-5.74.52-.52,2.42-.43,3.78-1.69,3.36-3.11,7.08-9.07,11.68-12.61.63-.48,6.44-2.54,7.02-3.22.52-.61.06-2.09.43-2.49.63-.69,3.97-.22,5.25-1.13.97-.69.3-2.64.67-2.95.32-.28,5.69-2.05,7.66-2.89,13.53-5.76,30.75-13.9,45.48-16.53,31.05-5.54,50.74-3.93,81.58,0,5.77.74,2.32,1.19,4.82,2.11s7.69.52,10.62,1.39c1.31.39,6.51,3.37,7.48,3.71,1.41.49,8.43,1.61,9.1,2.28.5.5-.38,2.31.8,2.82,2.11.92,18.46,6.46,19.19,7.19,3.92,3.92,5.5,4.8,10.32,7.87,2.55,1.63,4.19,4.77,4.5,4.94,1.14.64,4.09.3,5.13,1.19.89.76.53,2.63,1.52,3.53,1.34,1.21,3.81,2.61,6.1,4.84,1.13,1.1,4.37.42,3.61,4.41l2.92-.96c.33.21,2.33,5.5,3.01,6.27,2.67,3,1.48.67,4.32,5.42.72,1.2,3.06.64,5.18,4.85.54,1.07,2.14-.01.57,4.41l2.98-1.01,1.03,4.01c2.45.51,1.59-.57,2.47-2.01.79.93,2.29,1.13,3.08,1.97,4.59,4.87,2.47,10.06,4.41,13.39.61,1.05,2.16.38,2.73.89.69.62.58,2.92,2.2,4.37,1.23,1.1,3.49,1.16,3.88,1.6.81.93.48,5.89,1.75,7.75,1.11,1.62,3.66,1.45,4.25,2.25.84,1.15.5,5.37,1.25,7,.51,1.11,2.08,1.12,2.74,2.47,1.11,2.26.6,6.49,1.73,8.31.93,1.5,3.38,1.27,4.27,2.3.46.53-.07,2.13.83,2.79,1.73,1.27,4.87.47,6.69.96.82.22.66,1.73,1.4,1.92,1.47.38,11.6-2.74,12.07-3.23.51-.55.2-2.22,1.27-3.19,2.19-1.99,6.34-4.76,8.55-6.92,15.68-15.31,22.24-31.39,27.68-52.4,3.34-1.83,5.63-8.89,9.45-10.02,6.54-1.94,8.67,1.19,13.09,2.5,2.41.72,5.05.62,7.41,1.59,6.33,2.6,11.73,7.71,16.79,12.21l-2.93.54-.06,3.96h-4.01s3.01,7.99,3.01,7.99l-9.32,2c-.96-2.86-3.04-1.45-4.42-2.24-1.91-1.1-4.76-8.62-4.11-11.03.52-1.94,4.74-3.88,3.4-6.7-.71-1.49-7.56-5.73-9.57-5.6-4.65,2.52-3.12,20.03-1.42,24.51,4.18,11.03,28.36,10.27,37.71,7.82,6.37-1.66,4.08-9.35.25-12.78-2.39-2.14-6.42-2.46-7.44-6.6l1.82-1.81-.83-29.03-2.95-.61c-.38-.4-.38-8.68-1.63-10.93-1.17-2.1-3.74-1.59-4.28-2.22-.61-.7-.41-4.36-1.4-6.15-.71-1.29-2.59-1.44-2.83-2.35-.74-2.87.55-8.04,0-11.3,9.22-2.17,10.46,2.28,16.07,5.48,1.18.67,3.4.26,3.82.65.28.26.39,3.99,1.04,5.46,2.77,6.27,1.92,5.32,3.34,11.66.6,2.68,3.38,12.74,4.3,14.7,1.18,2.52,4.58,4.49,7.39,4.13-.75,1.4-.41,3.27,1.54,2.92,1.56-.28.59-2.72.72-2.83,1.16-.95,4.27-1.31,6.78-3.68,2.31-2.19,3.57-6.97,4.9-8.05,7.25-5.92,9.33-12.1,14.24-18.8,8.81-12.04,9.95-26.73,19.3-38.76,1.71-2.2-.73-3.29,5.66-3.31l1.53-3.63,9.29.18ZM503.99,153.01c-6.41-1.81-12.37-3.39-19-2.01l.06,2.92c2.89-.81,3.73,2.83,4.65,3.08,5.04,1.37,5.44-1.86,5.98-1.98,2.21-.52,7.17.92,8.3-2.01ZM835.81,172.82c1.62-2.74-2.34-5.39-2.64-7.51-.34-2.31,2.08-5.81-.66-8.3l-3.41,3.7,1.89,5.27c-3.63,1.81-7.97,3.84-10.53,6.98-1.2,1.48-1.47,3.16-2.46,4.54-2.15,2.99-8.72,6.92-1.7,9.76,5.31,2.15,5.87-7.67,8.4-10.32,3.05-3.2,9.81-1.93,11.11-4.13ZM396,160.01l-6.96,1.04-.04,7.94c4.33,1.07,11.46.97,11.01-4.98l-6-1.02,2-2.98ZM450,166.01c-5.54-1.59-10.13.3-15.52.98-4.73.6-9.86-2.14-11.49,4.01,2.55-.18,4.91-.24,6.51,2.01,1.57-4.53,5.52-2.77,9.49-2.99,2.69,2.34-9.69,6.29-10.93,6.56-8.17,1.82-16.62,1.65-24.62,2.39-10.05.93-18.95,3.45-28.87,5.11-1.65.28-2.82,1.83-4.16,1.97-2.23.23-3.56-2.17-4.79-1.95s-5.22,5.13-9.63,2.9l4-.98v-4.02c7.36,2.89,9.41-3.71,13.03-5.45,1.36-.65,3.25-.3,4.19-.81,2.84-1.54,5.62-4.57,8.77-4.74l-14-1.98.88,1.85-22.33,13.18-9.54,12.95c4.78,1.17,6.39-2.97,10.75-3.73,2.44-.43,6.75.92,9.69.76,11.11-.6,25.58-4.88,37.14-5.95,16.33,3.24,36.4-8.16,50.07-9.02,2.79-.18,5.68,1.32,7.63.8,1.4-.37,2.67-2.7,4.68-3.4,17.31-6.03,23,.18,38,4.09,4.37,1.14,9.49.69,13.33,1.49.39.08,4.81,4.27,6.42,4.75,3.38,1,11.7.93,15.55,1.44,4.34.58,5.55,3.33,9.74-2.22-3.39.29-6.55-1.06-9.84-1.45-1.75-.2-3.87.85-5.44.49-.7-.16-9.62-6.93-11.3-7.06-10.49-.77-16.77-6.36-27.18-8.73-1.53-.35-26.31-2.39-27.69-2.24-1.52.16-2.57,1.74-4.09,1.94-3.07.4-6.36-.16-9.45.03l1-2.98ZM810.99,167c-1.86,1.19-3.75.17-5.55.91-2.77,1.14-13.46,10.8-10.99,14.14,2.89,3.91,5.76-.84,6.64-1.41,4.66-2.99,8.76-3.59,5.9-10.63,1.86.02,4.39-.38,4-3.01ZM233.25,222.74c-.52-.52-.44-2.33-1.22-3.23-6.01-7.07-9.77-6.35-8.08-18.06,1.27-8.87,2.72-10.54-.43-20.46-4.35-13.69-15.62-13.75-25.88-5.86-6.17,4.74-12.57,17.73-16.94,21.64-.58.52-2.12-.15-2.73.9s-1.4,7.91-.97,8.35c3.07.24,6.44-.4,9.45.05,1.57.23,2.76,1.69,5,2,7.01.97,13.54-.49,19.59-2.49,1.47-.48,2.8-2.62,3.96-2.13,6.92,5.14-.25,8.02-1.01,13.57l-1.97-.03c.09-4.28-2.35-.38-4.54,0-6.16,1.07-8.04-1.33-12.02-1.93-3.46-.52-7.33.36-10.94-1.06-5,.22,6.26,7.03,7.49,7.51,7.24,2.84,13.87,4.3,21.22,7.58,20.07,8.96,35.94,16.5,49.02,35.18,1.73,2.46,9.77,16.04,10.52,18.48.82,2.67-1.14,7.38,3.23,7.26,2.19-4.55-1.14-12.64,3.02-14.5l-.03-1.48c-6.2-1.37-3.56-9.18.51-11.97l5.92,4.02c1.2-2.59,4.38-2.84,3.58-6.07-2.7-.28-5.86.45-8.46-.05-12.49-2.36-28.5-26.19-38.3-33.98-2.66-2.12-8.18-2.42-9-3.23ZM475.6,205.64c1-2.49,4.61-11.02,3.93-12.6-1.68-3.86-5.86-2.38-8.58-3.49-5.18-2.11-14.08-10.64-19.41-4.51-4.53,5.2,1.84,8.47,4.96,11.96l4.85-4.91c11.1,8.45,3.55,26.15,2.65,37.91l7.78-3.21c2.95-6.05,1.05-14.7,2.24-20.09.18-.81,1.49-.83,1.58-1.05ZM805.99,189.01c-2.57-.34-3.06,2.81-5.54,3.05-3.26.31-4.18-3.15-6.52-4.48-8.9-5.02-9.37,7.34-4.93,12.41-3.38,0-4.92,3.77-7.5.03l-.99.98c-2.29,5.53-3.72,11.37-6.14,16.86-2.12,4.82-13.44,21.94-11.13,25.91.55.95,5.38,5.5,6.76,3.21-.25,2.59.32,4.55,2.52,6l11.48-10.5-11.99.5.92-2.56-1.92-.93c1.92-1.3,1.72-3.63,2.6-5.41,1.27-2.57,10.59-17.65,12.42-18.54s3.65-.18,4.76-.78c1.64-.89,4.76-9.63,9.21-6.77-1.6-5.5,1.85-7.75,3.26-11.34.57-1.44,0-2.75.35-3.69.51-1.34,2.96-1.84,2.39-3.97ZM549.27,193.73c2.39,2.36,8.7,3.02,9.71-1.19-2.42-3.83-6.35-3.81-10.44-4.53l-1.1,2.04c.88.98,1.01,2.86,1.83,3.68ZM552.77,214.32c-3.09-1.88-5.84,1.77-8.61,2.16-9.26,1.31-22.3-4.5-31.16-6.97-4.8-1.33-9.45-.98-14.54-4.48-3.29-2.27-9.61-11.83-11.45-12.55-.96-.37-1.95.45-2.92.63-1.9,4.36,1.58,8.77,1.92,11.46.41,3.3-.42,3.46.63,8.11.35,1.57-1.87,4.84,2.65,4.15,3.5-.54,4.98-7.42,11.71-4.84l-.05,4.96c-3.47-.34-6.01,1.34-6.77,4.78-.42,1.92-.49,11.63,2.8,11.28l-1.98.99c-1.02,2.64,1.75,1.57,2.01,2.64.46,1.86-.6,4.13.47,6.37.44.93,10.27,9.74,10.51,3.5l-5.99-3.02c.73-1.36,3.39.85,3.01-2.01-.2-1.53-4.77-8.6-4.74-10.01.03-1.99,4.2-4.19,6.71-2.99,1.5.72,2.02,3.21,4.57,3.54,1.65.21,3.36-.85,4.8-.69,4.03.44,8,3.16,11.63-.34.26,2.29,4.43,6.82,6.56,7.05,4.53.49,3.18-5.5,6.98-6.1,5.41-.85,5.5,3.78,7.98,4.12.68.09,7.85-.86,8.78-1.11s.38-1.9,2.18-2.06c3.88-.35,8.65,3.2,13.09,2.71l3.47-6.61c3.15-.5,6.3,3.93,6.7,4.03,5.63,1.35,8.2-3.43,11-3.84,2.14-.31,5.16,1.43,7.66.77l1.55,3.61c1.28.95,3.79.12,5.38.46.76.16,1.62,3.88,4.67,2.51,5.83-2.61-3.62-6.76-4.72-8.81-.6-1.12.07-2.84-.38-3.56-.88-1.4-11.02-2.16-7.87-8.17-.54-.55-9.94,1.22-11.44.83-1.2-.32-1.16-2.24-1.78-2.61-1.08-.65-3.23.16-3.7-.28-.43-.4-2.8-12.45-5.07-8.23-5.4,10.05-7.26,3.66-15.5,5.32-1.8.36-6.64,4.01-9.18,4.85-1.57.82-1.19-1.32-1.57-1.55ZM742,240.02c-10.87-4.44-23.25-.19-31-11.52-2.57-3.75-1.26-4.59-2.07-7.93-1-4.09-2.91-5.5-1.88-11.03.58-3.14,4.44-5.07-.55-8.53-2.55,0-5.66,12.7-6.57,15.22-7.03,19.62-14.01,34.45-30.88,49.33-2.18,1.93-3.77,3.8-5.04,4.91-.35.3-8.1,3.45-8.56,3.5-2.44.23-6.43-1.92-9.46-.97-1.05,3.51,1.82,4.56,2.85,6.64,2.87,5.78,5.47,11.74,8.64,17.35,7.7-5.55,10.89-16.11,16.97-23.03,6.75-7.68,27.59-20.18,37.35-23.64,6.8-2.42,15.58-3.46,22.36-5.64,1.28-.41,8.72-3.33,7.82-4.67ZM410.21,214.78c-.68-.38-1.55-4.11-3.91-4.63-1.46-.32-3.1.89-4.69.75-6.04-.51-8.48-2.44-13.2-3.8-5.22-1.5-11.57.1-16.27-.74-2.81-.5-4.36-2.33-7.61-2.47-4.01-.18-8.01,2.26-12.13,3-8.52,1.54-17.38,1.9-24.93,7.07-5.32,3.64-10.02,16.44-13.1,21.9s-11.89,14.56-13.44,18.56c-.46,1.18-3.05,11.17-3.05,12.08,0,.72,1.98,8.07,2.2,8.45.12.2,2.52-1.43,3.92,1.57,1.32,2.82-2.98-.81-3.88,2.14l.9,8.35c7.42-1.32,11.79-.19,16.99-6.51l-3.01-.5.02-3.99c2.88-.8,1.68,2,3.59,2.77.88.35,4.96-.36,6.41.21l-3-5.99h3.01s.99-9,.99-9c-3.28,1.51-4.69,1.65-8.36.93l-1.62,2.06c.23-4.23-3.92-1.19-5.51.99l-2.14-3.08-3.35,1.1c-.75-3.53,3.34-3.65,3.93-7.59l3.05.6c-.97-6.56,4.11-5.81,5.92-8.61,1.66-2.55.86-6.85,1.93-10.03.1-.31,3.34-5.22,3.56-5.45,1.88-1.99,8.62-4.66,11.44-6.06l1.17-7.86c3.58-.11,6.12,3.67,8.72,4.77,1.11.47,3,.12,4.47.53,5.83,1.6,8.57,4.17,12.3-3.33l3.99,2.05c2.3-5.58,5.97,2.57,10.23,3.76,5.31,1.48,9.52-.22,13.79.13,5.67.45,13.79,7.59,18.49-1.41l-2-2.49,4.04.48c1.86,1.48.22,4.84,1.42,6.58.98,1.43,6.1,3.15,8.01,2.96,4.38-.45,11.64-2.34,15.05-5.02,4.03,6.53,4.67-1.37,6.5-2.53.91-.57,2.58.64,3.49-.38,1.24-1.4.84-3.76,2.19-5.14,2.13-2.17,7.29-2.21,10.19-3.04,1.35-16.08-16.81-2.15-25.18-5.73l-5.3,4.9c-3.71-3.01-13.48-1.76-16.2-3.28ZM485.98,230c.49-.4,2.55-10.97-1.47-10s-2.88,13.6,1.47,10ZM458.99,234c-6.16,1.45-15.12,6.71-9.49,13.98,2.01-2.26,3.59-2.98,6.47-2-.97-4.05,2.29-2.35,3.07-3.64,1.32-2.18-.11-5.97-.05-8.35ZM405.7,242.35c-4.41-2.44-9.05,0-13.36.29-6.66.45-8.11.66-14.48,1.7-7.64,1.24-18.69-2.69-22.83,6.16.96,1.49,1.93,1.36,3.44,1.54,19.13,2.26,40.5-3.97,58.02-.55,1.27.25,1.8,2.01,3.51,1.5l-1-3.99c1.98-.05,3.56.8,3.01-2-4.2-1.4-10.85-.86-12.51-5l-1.44.06c-.82,5.23-2.11.42-2.35.29ZM607.32,252.66c-5.17-2.92-16.59-8.04-22.82-8.74-2.35-.26-4.97,1.1-7.49.09l1,7c-3.14-.25-8.19,1.01-11.11.42-3.07-.62-5.89-3.44-8.54-4.07s-6.9,1.35-9.79-.37l-1.05,2.02c-1.61-2.22-3.95-2.22-6.5-1.99v7.99c2.61,1.05,1.6-1.78,2.64-2.01,1.27-.28,5.39-.26,6.66.05.64.15.51,1.39,1.51,1.9,2.39,1.22,3.88-.36,5.42,4.84,2.08-.62,5.58,1.85,6.28,1.85,1.43,0,4.14-2.43,8.95-1.56,14.8,2.66,25.63,4.88,38.06,13.93,8.78,6.39,9.33,18.53,15.03,22.97,4.28,3.34,9.04,2.3,13.44-.46l-8.97-7.02,1.54-2.43,6.44.94c.26-9.63-1.34-6.5-6.55-8.94-8.59-4.03-5.46-5.31-8.48-11.27-.68-1.34-4.79-3.83-5.66-5.09-.64-.92-.28-2.75-1.26-4.23-2.47-3.78-5.6-4.03-8.74-5.8ZM751.32,253.74c-1.76-3.74,3.24-8.73-1.86-9.78-2.81-.58-2.33,1.66-3.21,1.98-15.81,5.76-29.19,7.6-43.13,14.68-5.14,2.61-4.6,3.68-7.09,5.88-1.15,1.02-3.95.9-5.67,1.88-.69.4-10.48,9.13-11.42,10.06-1.78,1.76-14.08,19.76-14.73,21.25-1.13,2.6-.54,7.21-1.24,9.64-.26.89-2.03.61-2.01,1.2.04,1.41,1.69,2.32,2,4.03.78,4.33,4.27,18.51,7.31,21.26.55.5,2.24-.32,2.76.85.75,1.68.34,5.75,1.18,7.68,2.72,6.31,6.51,13.1,8.53,19.43,1.73,5.43,1.26,10.63,1.27,16.24l2.98-1v7c3.33,1,5.19-2.24,7.71-2.8s5.47.3,7.63-.21c.76-.18.64-1.95,1.3-2.04,1.69-.22,4.05,1.47,6.79,1.04,13.4-2.08,27.35-8.12,39.23-13.38,5.18-2.3,11.02-4.42,16.58-6.69,1.04-.42,3.92-3.92,6.54-4.67,3.52-1.02,9.2-.47,12.53-1.29.61-.15,1.28-2.96,3.72-1.97-1.86-1.22-2.69-6.28-3.27-6.79-.49-.44-2.09.05-2.52-.35-.53-.49-3.57-11-4.61-13.49-7.94-19.06-11.81-40.98-20-59.99-2.66-6.18-4.65-14.02-7.29-19.62ZM771.41,269.61c-1.66-4.4-2.71-12.86-4.96-15.56-2.49-2.98-5.07.69-5.17,3.23-.2,5.01,4.02,16.63,5.8,21.95,5.33,15.86,11.7,33.92,17.22,50.97,1.49,4.61,5.72,9.05,7.48,12.48,2.6,5.06-.64,12.35,3.2,16.84s10.12,8.38,16.02,6.48c1.13-3.24-2.51-5.72-2.91-6.8-.92-2.5-.62-7.78-1.58-9.22-1.39-2.1-10.48-2.85-11.96-6.93-.94-2.58,2.16-8.57,2.01-10.53-.14-1.75-5.71-15.62-6.87-18.73-5.51-14.79-13.02-30.21-18.29-44.18ZM383.01,266c.14-2.4.34-4.77-2.5-4.99-6.74.86-15.65.06-22.06.95-5.24.72-14.61,4.07-18.98,7.02s-7.68,7.72-3.49,12.56c.5.57,5.71,5.69,6.07,5.93,2.15,1.41,8.34,1.74,11.19,2.63,1,.31.42,2.8,3.08,1.79l2.21-1.87c2.42-4.71-5.68-5.69-8.51-6.53l-5.03-7.46c6.52-1.12,12.81-4.29,19.35-6.16,5.94-1.69,12.57-2.62,18.66-3.85ZM436.31,269.36c4.55-3.01,9.86-6.39.7-8.36v4.01s-2.04-2.98-2.04-2.98l-5.96,1.99,3.01,1.99-1.02,2.99c2.3-.37,2.66.16,3.51,2.02l1.48-.03c0-.48,0-1.41.32-1.62ZM522.98,262.02l-1.99.48v5.49s-3.99-.99-3.99-.99l.99,3.99h-3s.99-2.99.99-2.99c-8.7.33-4.32-.34-5.54,3.03-.86,2.39-5,3.67-7.38,2.83.63-4.21-2.28-2.46-4.39-3.8-2.79-1.78-.88-4.89-7.96-1.83-6.17,2.67-4.22,1.29-11.1,1.9-4.13.36-6.03,2.81-7.06,2.95-2.32.3-5.14-.33-7.56-.09l1.99-2.98c-7.25-1.48-6.22,5.56-10.24,8.35-1.3.9-10.2,3.91-10.66,3.58-.29-.21-.49-2.66-2.08-3.45-2.23-1.11-8.32-.64-10.65.4-2.57,1.15-2.15,2.91-2.39,3.1-1.95,1.53-2.11-1.78-2.98-2.44-2.06-1.56-5.14-1.56-7-3.05s-1.67-3.65-3.06-4.94c-1.65-1.53-14.06-6.94-16.71-7.27-3.75-.46-7.47-.29-11.22-.28-3.3,3.05,12.55,8.86,13.88,9.61,3.69,2.08,7.25,4.98,11.02,7.03l-1.05,6.22c-2.42.75-6.93-.75-8.89.61-1.34.93-.87,4.57-4.73,6.27-10.13,4.46-36.22,5.04-47.72,4.26-4.7-.32-15.3-3.26-19.75-5.25-2.74-1.22-12.02-9.29-14.33-3.74-.46,1.1,2.75,2.64-.35,4.5,18.92,15.4,46.17,15.49,69.36,11.44,17.63-3.08,36.23-11.78,53.04-14.72,4.52-.79,10.07.42,15.05-1.14,4.62-1.45,11.09-6.88,18.4-8.64s14.19-2.73,21.36-.23c8.59,2.99,10.51,5,16.31,10.69,7.43,7.29,57,25.13,67.91,26.09s19.03-1.3,29-2.97c4.69-.79,5.63-1.01,9.2-1.97,2-.54,5.01.07,7.28-1.06.36-.49-.92-1.55-1.71-1.77-6.93-1.92-23.32.49-31.79-.21-5.26-.43-13.03-3.1-18.04-3.96-8.5-1.47-16.37-.36-24.83-5.17-5.42-3.09-5.91-10.33-15.63-7.87-1.4-8.81,4.02-7.89,9.47-10.05,19.95-7.89,32.65-8.54,52.23,1.85,4.57,2.43,12.2,6.71,6.32,11.7l-12,1.51c-.5,2.61.43,1.54,1.42,2.07,4.01,2.13,6.26,1.26,10.57.91l-1-2.98,8.05-.47c.17-3.89,2.96-4.49,1.9-8.83-.18-.75-1.58-.76-1.89-1.47-.81-1.86-.43-4.14-2.13-5.68-1.59-1.44-5.82-2.15-7.86-3.14-1.3-.63-1.95-2.31-3.12-2.88-14.3-6.86-45.66-5.08-60.22-.31-3.47,1.14-3.11,4.83-4.77,6.23-.46.39-8.98,4.25-9.49,4.2-3.89-.44-5.02-8.53-5.48-11.65,6.08.55,6.47-5.2,9.93-7.07l.02-1.89c-2.02.34-1.85-1.95-1.96-2.02ZM401.99,288.99c-1.74-3.38-1.81-7.29-3.99-10.49-7.26-10.66-26.71-10.77-33,1.01-6.82,12.78,2.2,8.37,8.5,8.41,5.45.04,10.55.02,15.99,0,4.62-.01,8.21,2.68,12.5,1.08ZM587,297c-.95-16.4-19.79-23.57-32.47-12.97-4.62,3.86-5.17,5.74-4.53,11.98l37,.99ZM293.99,291.01l-3.85.16c-.31,4.05-3.29,5.76-7.15,5.85-1.99,2.38,5.98,8.31,7.57,1.99.33-1.32-.7-2.91-.58-3,.89-.67,4.79.89,4.01-5ZM279.22,303.19c.32-.57,2.73-.93,2.77-1.69-2.51-2.66-5.69-4.28-4.99-8.5-5.85,3.46-2.81,13.98-4.02,19.29-.15.67-5.14,9.35-5.72,11.46-.78,2.81-.61,7.18-1.24,10.25h2.99c-.81-9.73,6.53-17.14,9.74-25.77.59-1.6-.19-3.84.47-5.03ZM519.87,309.11l-16.78-6.54c-7.67,1.6-15.51-2.53-21.65-3.53-7.07-1.15-36.97-.08-43.7,2.02-.38.12-5.8,4.36-6.21,4.98-1.15,1.73-2.38,4.96-1.32,6.75.14.24,3.84,2.32,4.26,2.22.96-.24,1.21-2.54,1.67-2.82.27-.16,3.74,1.24,5.35-1.94,2.89,3.14,2.84-.14,4.46-.68,1.78-.59,10.58-.65,12.03.43l-1.99,2.98,3.99-1,.06,2.91,4.95.11-.99,3.98h3c-1.17-1.86.76-5.55,2.01-6.99.94-1.09,1.1,4.08,2.98,1.99,1.18-1.31-4.4-4.62-3-6.98,3.5-.96,8.07-.14,10.51-3.01.34,3.29,6.58,2.09,7.38,3.13,1.08,1.41-1.81,3.77,4.62,5.93,2.81.94,5.68.13,8.49-.07l-.51-2.98c2.81.48,5.26,2.72,7.46,3.54,1.74.65,3.77.14,5.32.68,2.22.77,3.73,4.2,7.73,2.77l-.13-7.88ZM381.63,335.66c.66-1.71.63-3.53,1.31-5.22,1.48-3.68,5.15-5.41.56-9.43-.8,0-11.05,8.97-12.13,10.35-3.6,4.62-3.19,7.2-4.41,11.93-.21.81-1.76.63-1.94,1.4-.38,1.62.5,3.86-.48,5.36-.51.77-3.27,1.24-4.6,2.39s-2.84,4.13-3.17,4.33c-1,.58-6.38,1.19-8.95,2.34-3.74,1.68-8.62,6.22-12.07,8.17-3.14,1.77-10.67,3.31-11.76,6.71-1.96-.27-.79-3.82-1.9-5.39-.53-.74-4.07-.71-4.59-3.6-.8,1.87-1.26,2.35-3.5,2-.23,2.26,1.88,2.78,2.78,4.74.8,1.73-1.01,4.07,2.21,4.75-5.44,2.7-10.44,5.88-14.51,10.5-2.04-1.59-3.15-2-6.48-1.99-.16,2.91,3.26,3.92,4.45,6.06.14.25,1.58,5.11,1.6,5.39.05.65-2.03.75-2.89,2.2-1.53,2.59.1,6.73-1.37,9.65-.73,1.44-2.57,1.48-2.8,2.39-.57,2.19.41,5.83.02,8.29,6.46.45,5.93-8.46,6-12.99l2.98,1c-1.24-4.15,2.23-4.32,3.07-5.68,2.94-4.78,2.14-6.34,7.7-11.32,14.52-13.01,38.56-20.19,55.83-32.4.6-.43,5.83-7.64,6.38-3.89-1.54,2.98,7.6,7.87,9.57,8.24,2.74.52,10.8-.5,13.9-1.01,2.05-.34,3.12-2.26,6.05-2.06,4.99.34,15.29,4.19,20.06,5.08,3.72.7,8.47-.55,12.32.16l2.1,6.39c-1.46,2.43-2.8.32-4.97.48,1.22,4.88-3.62,1.32-3.01,5l7.9,1.84.6-1.84,2.49,2.01.08-4.92c.68-1.02,12.49-.55,14.2-.02.92.28.35,1.81,2.15,2.03,7.45.91,16.68.51,24.06-.13l.56,2.96,3.96.08v4.02c1.73,0,3.53.24,5.25-.25,2.54-.72,8.51-4.99,10.44-5.56,5.83-1.71,16.14-2.69,22.71-4.29,14.71-3.58,22.73-10.25,37.94-1.77,10.86,6.06,22.23,18.67,32.32,25.68,11.68,8.11,29.17,5.16,37.56,18.44,9.07,14.35,10.8,51.6,8.78,68.27-.41,3.4-3.35,5.81-3.08,7.92.07.55,1.86.45,2.04,1.23.83,3.47-1.12,8.57,1.16,12.19h4.71c-.48-2.11,2.88-4.74,2.89-5.33.01-.45-1.24-1.4-1.46-2.32-.31-1.31-.04-3.15-.52-3.98-.55-.98-5.05-1.52-3.77-5.22h3c.53-1.99-2.03-2.51-1.78-4.32.34-2.53,2.68-5.06,2.76-5.37.97-3.88-1.09-8.45-.77-11.59.39-3.81,3.86-5.16,2.74-11.17-1.46-7.83-2.25-14.62-.9-23,.14-.9,3.08-7.12,3.47-7.53,1.6-1.66,6.79-1.99,9.51-6.49.36-.59,3.69-7.85,3.81-8.29.39-1.51-3.01-11.78-3.05-14.57-4.53-6.65-10.44-10.28-17.15-14.85-9.27-6.31-23.4-9.77-31.2-18.76-1.94-2.24-1.85-4.62-4.95-7.05-10.78-8.46-27.23-12.72-37.2-21.3-4.83-4.15-6.84-11.88-15.79-10.72l-.49,1.99c2.43.36,4.68,4.34,6,6.5,5.18,8.49,10.23,20.44,3.87,29.39-6.77,1.3-6.18-5.55-9.03-9.22-4.66-6.02-9.37-1.76-14.41-.71-8.92,1.86-23.5,4.56-31.71,8.29-2.52,1.15-2.75,3.79-3.68,4.3-.26.14-4.18,1.21-4.8,1.4-3.04.89-20.4,3.31-22.68,2.99-20.83-2.94-31.22-5.03-49.34-14.9-1.46-.79-10.67-2.73-13.26-3.47-5.47-1.56-14.28-5.65-20.03-4.16-2.69.7-5.67,8.41-8.95,6.1l1.01-5.48-2.04,2.9c-6.15-.93-13.16,6.17-12.6-4.26.23-4.23,2.55-6.09,3.28-7.98ZM489.01,329.99l-2.47-1.97-2.63,3.92-2.9-.95-1.01,4.01,10,2c.02-2.78-8.92-6.82-.99-7ZM500.44,336.51c-.4-.44-.59-.9-.46-1.5-5.14,1.64,1.06,8.74.01,9.99l-2.99-.99v4.94c5.62.35,9.05,5.72,12.98,9.05l3-2-1.01-2.99,3.01-.02c-1.88-1.61-1.4-3.94-1.99-5.31-.53-1.22-2.16-.36-2.73-.9-.65-.62-.24-2.48-1.26-3.28s-3.33-.37-5.13-1.89c-1.21-1.02-1.79-3.29-3.45-5.1ZM267,336.01c-2.33-2.32-6.42,7.02-6.8,8.69-.78,3.42,0,9.09-.8,12.32-1.91,7.75-9.76,22.13-11.35,30.52-1,5.26.37,13.61-.65,19.26-1.75,9.58-8.42,11.15-14.05,16.54-15.37,14.73-29.77,30.57-45.28,45.21-2.97,2.8-7.81,3.88-9.05,9.44,9.01-4.71,13.89,12.19,19.88,2.37.79-1.3.82-3.69,1.36-4.19.8-.76,3.39.88,2.76-1.65l-8.55-2.46-.38-6.01c1.69,0,2.98-.09,4.5-.98,4.3-2.54,14.43-16.47,19.39-20.62,5.68-4.76,5.02-3.27,10.51-9.49,4.45-5.04,10.41-8.42,14.25-12.2,1.03-1.01.08-4.57,4.31-3.77-2.09-4.22.59-2.31,1.81-4.68s-.07-5.24.6-7.3c.84-2.55,3.81-3.84,4.37-5.71.51-1.68.01-3.73.43-5.57,3.49-15.21,6.78-30.64,9.88-46.12.81-4.04,3.54-8.58,2.88-13.6ZM797.99,373c-4.47,2.26-4.63-1.2-7.72-2.77-6.57-3.34-12.66,4.53-20.28,2.78v5.99s-4.36-1.92-4.36-1.92c-4.94,5.45-11.61,5.49-17.55,7.51-.94.32-10.48,5.19-10.93,5.63-.47.46.34,2.15-.81,2.82-2.76,1.61-8.63,3.08-11.27,4.54-1.98,1.09-3.18,3.81-5.14,4.85-3.19,1.71-6.95.62-10.1,1.85-2.79,1.08-5.02,4.29-7.41,4.76-5.69,1.12-6.5-14.08-3.41-17.02h-10c1.98,8.36-.18,15.98,3.22,24.26.71,1.74,2.52,2.38,4.19,2.77.46-.01.56-1.44,1.4-1.93,9.61-5.55,23.47-9.04,34.37-13.43,5.6-2.26,15.28-5.36,20.02-7.72,1.33-.66,3.87-4.87,4.76-5.37.77-.43,7.18-.86,9.22-1.7,1.06-.44,3.04-3.29,5.48-3.57,1.41-.16,4.64,1.27,5.29.62.23-.23-.33-2,.24-2.68,2.13-2.55,16.76-5.95,20.73-6.33l.05-3.94ZM477,385.99c4.66.46,9.08,2.21,11.98-2.49-1.92-2.55-5.8-4.64-4.99.49l-1.49-1.99-1.52,2.99-.99-3.01c-3.3,1.24-8.63,1.6-11.62,2.85-1.7.71-4.95,4.15-7.14,4.9-4.79,1.63-10.26,1.66-15.15,4.85-.78.51-5.5,5.01-5.08,5.41,2.36-.9,4.68,2.71,5.49,2.78.7.06,8.44-4.87,10.25-5.53,6.61-2.42,9.5-3.31,16.34-6.69,1.24-.61,2.55-.51,3.88-.59l.05-3.97ZM507.01,416.99c2.24,2.36,13.35-9.09,13.8-11.68.33-1.91-2.11-3.39-2.57-5.06-1.01-3.76.42-10.52-3.92-13.07-2.13-1.25-8.13-1.9-10.29-.67-.25.14-3.95,3.71-4.04,3.98-1.39,4.03,3.05,1.33,3.02,3.49l-3.99.02,2.05,5.48-1.9.62-.15,1.88c2.87.42,4.59.75,4.01,4h2.99s0-3.48,0-3.48l-3.99-2.49c3.64.25.22-4.54,4.98-5.01l1,10.97-6,1.54c.1,3.56,3.67,1.18,3.96,1.51.22.26-.21,1.58.16,2.13.63.95,1.59.97,1.63,1.06.3.7-1.31,3.35-.73,4.79ZM437.25,410.83c-1.28-1.15-.69-5.18-.26-6.82l-5.99,3.01c3.44,4.01,1.16,11.93,8.53,9.04,2.2-6.65-1.22-4.27-2.28-5.22ZM329.99,410l-8.99,1v13s-3-.99-3-.99l1.41,5.07c1.24.92,9.69-.28,12.96.05,1.69.17,7.21,1.97,8.31,3.1s.74,2.74,1.38,3.99c1.16,2.23,1.75,4.56,2.44,5.76,1.89,3.29,8.73,4.32,6.63,10.89l3.45,1.07-.58,3.05,2.99-1.01c2.38,9.14,13.94,14.53,21.23,20,1.06.79,1.32,2.29,2.24,3,7.6,5.85,7.74-1.54,15.91.14,4.53,4.75,3.02,10.69,9.28,13.72,5.61,2.71,9.32,1.54,14.81,2.18,1.39.16,2.4,1.65,3.24,1.79.75.12,5.06-2.64,9.76-1.76,2.6.48,3.86,3.3,7.54,1.45,4.17-2.08-.21-8.22,1.14-11.87,1.24-3.68,11.32-.69,14.32-.6,7.62.24,15.3-.22,22.93-.1,3.13,16.02,3.83,8.92,13.54,6.48,2.68-.67,8.13-1.94,10.62-2.37,10.28-1.76,9.33,1.98,12.47,9.95,1.25-1.85,4.86-2.51,5.72-3.26s.64-2.66,1.55-3.45c8.47-7.41,21.16-12.2,25.76,1.68,3.7,1.52,9.08-5.86,9.66-6,2.13-.52,5.08.56,7.6-.18,7.39-2.18,26.95-23.08,31.3-30.19l8.41-17.6,4.49,18.99,2.5-.64c1.2-4.76.99-9.85.89-14.76-.02-.86-1.09-2.5-.89-2.58.54-.22,2.09.41,2.76-.2,1.1-1-.58-4.65,4.71-3.83,3.79.59,7.54,10.32,8.55,14.02,4.06-1.71,3.06-5.83,2.86-9.37-.55-9.67-3.78-26.7-15.86-26.63l1,11c-6.68-.31-13.82-.42-20.46-1.05-21.81-2.07-42.38-3.54-64.11-.01-22.31,3.62-47.07,10.6-69.89,7.01-4.08-.64-12.37-4.43-16.15-4.97-2.85-.41-3.83,1.5-5.97,1.97-4.92,1.08-4.3-1.73-5.12-1.92-18.77-4.55-34.22-1.57-51.86-3.98-2.61-.36-3.87-2.03-6.99-2.17s-1.71,2.4-4.92,2.25-4.38-1.81-6.99-2.18c-8.72-1.21-21.12.65-30.05.04-2.82-.19-5.56-1.57-8.5-1-.93-3.16,2.56-1.44,3.55-2.92l.44-5.07ZM249.92,441.94c.22-.18,1.92-4.96,1.88-5.24-.19-1.23-2.46-3.72-2.3-5.7-1.14,2.69-5.56.75-5.54,3.5.02,2.47,3.45,9.47,5.96,7.43ZM255.99,461l-8.44-12.1c-2.77-1.28-7.29-.23-6.63,3.54.16.9,2.66.86,2.96,2.12.2.86-1.03,3.21-.97,4.94.47,14.2,11.54,24.51,17.48,34.57s11.52,25.92,18.01,35.53c4.1,6.07,3.04,5.03,6.16,11.34.8,1.62,4.38,5.16,5.38,6.84,2.08,3.53,6.52,13.52,9.48,15.3,2,1.2,4.58.62,5.63,1.37,1.31.93.39,3.7,2,5.04,4.04,3.37,9.77,4.96,14.3,7.66,1.9,1.13,3,3.36,4.71,4.29,3.21,1.75,6.55.1,7.55,5.54.54,2.94-1.57,6.27,1.11,9.08,2.17,2.28,4.14.93,5.56,1.36,2.6.78,5.26,2.32,8.2,2.61l.5-2.28c1.44-3.45,2.64,2.27,3.52,3.24,1.61,1.78,9.39,6.05,11.84,7.65,22.59,14.79,41.48,20.93,66.52,26.99,21.65,5.24,61.52,9.35,83.69,6.46,1.85-.24,1.32-1.87,2.12-2.06,1.2-.27,11.71-.57,12.89-.21,1.54.48,8.83,6.95,9.5,8.56,1.56,3.76,1.22,8.74,2.24,12.81.74,2.98,3.81,7.54,4.36,9.03.25.67,1.06,7.5,1.33,7.78,3.29,2.45,6.07-8.61,5.89-9.3-.28-1.06-2.33-2.39-3.02-4.18-.85-2.2.19-4.29-.38-5.5-.61-1.31-3-2.15-3.35-3.74-.43-1.95,1.75-3.86-1.16-6.29l4,.98-1.01-2.98c4.7-1.51,19.38-4.93,20.82-9.7,1.11-3.69-.66-7.9,4.19-10.81-1.87-.94-4.17.47-6.45.55-1.34.05-2.86-1.02-4.11-.95-1.53.08-2.52,1.74-4.01,1.95-3.25.44-5.47-5.78-8.38-7.54,2.96-3.99,6.14-4.19,3.94-9.5l-3.98,2-.5-2c-3.96,5.24-5.76-1.3-8.12-1.76-2.7-.52-9.53,2.71-13.39.77,1.3,2.44,3.9,2.38,5.85,4.64,2.17,2.5,1.14,4.81,3.17,7.34l2.97-1.99,1.49,3,1.53-3.99,5.91,3.46-1.92,4.53,5.98,1.51c-2.19,1.01-.82,3.3-1.26,4.21-1.07,2.25-8.01,5.54-10.93,4.24-12.23-5.46-26.18-1.21-39.36-2.87-1.95-.25-1.03-2.14-2.9-2.2-2.92-.09-4.33,1.8-6.98,2.17-3.14.44-22.28.61-24.82-.29-1.46-.52-2.19-1.74-3.23-2.75l-2.03,3.01c-5.62-3.43-13.49-2.1-19.85-3.15-3.97-.66-7.11-1.81-10.82-3.18-9.88-3.65-21.6-4.14-32.01-7.99-6.88-2.54-13.42-8.54-20.8-9.71l1-2.99c-5.82,1.95-11.27-3.01-16.21-6.01-.95-.58-1.33-2.25-2.37-2.87-1.79-1.07-10.34-3.44-11.2-4.4-.44-.49-3.8-6.02-4.14-6.28-.76-.56-6.56-1.28-8.82-3.75-.78-.86.76-3.64-3.25-2.7-1.05-2.04,3-4.29,1-5.52-.68-.42-4.66.4-6.98-1.01-1.76-1.06-2.45-5.23-4.36-6.09s-4.82-.65-6.03-1.34c-1.05-.59-.32-2.31-.86-2.82-1.01-.96-3.61,1.44-2.9-4.14l-3.01-.66c-.96-1.29,1.23-6.76-3.86-2.41,1.01-4.18-3.12-2.57-5.09-5.45-2.24-3.28.81-3.95.85-5.08.03-.91-3.5-3.1-4.25-4.53-.64-1.22-.32-3.61-.61-3.87-.64-.58-3.81,1.03-4.52-2.06l-2.39,1.01c.3-3.06-2.34-4.43-3.51-7-.78-1.71-.93-5.93-1.75-6.76-.7-.72-3.47-.54-4.82-2.67-1.43-2.27-.45-4.19-1.26-6.28-1.42-3.67-7.14-6.07-8.41-7.55-2.38-2.77.21-7.56-.71-9.71-.79-1.83-8.45-8.29-9.73-11.44-1.64-4.02.7-7.45.18-11.6l-2.98,5c1.57-4.19-2.95-4.64-3.93-6.79-.89-1.95-4-11.92-3.07-13.21l5.98,2ZM215.97,465.96c1.12-1.6-2.18-5.42-2.94-4.94l-5.01,4.5,1.77,1.63-.78,2.85,6.96-4.04ZM325.99,482.99c.37-3.48-2.18-5.88-4.49-7.97l-1.49,6.98,3.99-2,2,3ZM169.68,549.73c3.95-17.62,5.95-35.27,8.37-53.18.2-1.51,1.68-2.76,2-4.99.29-2.01.51-8.53-1.56-9.55-1.94-.95-2.16,6.88-4.24,7.74-7.35,37.64-10.06,75.91-20.45,112.55-1.77,6.24-7.07,12.88-5.74,20.16.28,1.52,1.63,2.6,1.91,4.11.82,4.42-2.86,9.05-2.99,14s1.59,9.17.91,14.84c-.47,3.87-2.52,4.64-2.65,5.12-.99,3.69,6.47,11.5-.21,16.46,3.07-.34,1.74,3.42,2.65,5.86,5.18,13.91,7.38,29.61,15.95,42.05,2.27,3.29,14.94,17.11,18.1,17.9,1.4.35,2.87.25,4.28.22,1.4-5.42-1.09-5.1-2.36-7.1-4.42-6.91-5.75-5.47-9.37-9.17-3.85-3.93-12.76-29.08-14.21-35.3-.68-2.9.31-7.47-1.11-10.63-1.83-4.06-7.19-2.31-4.86-11.18,3.32-12.66,2.34-16.5,2.86-29.19.13-3.11,3.1-3.25.03-6.94l2.04-.99c-1.4-1.1-3.18-5.58-3.04-6.92.08-.74,2.08-.77,2.83-2.26s.63-5.43,1.45-6.15c3.27,1.23,3.73-6.04,3.65-8.56-.16-5.02-4.29-9.39-3.9-13.03.31-2.82,3.48-5.2,3.8-8.31,1.29-12.9,3.22-25.7,5.88-37.55ZM299.99,486.99h-2.99s0,3.02,0,3.02l-5.99.48c.68,2.11,3.55,1.65,3.78,1.82.68.51.93,2.52,2.16,3.24,4.16,2.43,1.83-2.21,5.05-3.04l-2.01-5.52ZM473,490c-1.53-1.02-21.72.77-25.5,0l-1.54,2.5c.25,1.67,1.21,2.7,2.78,3.26,2.89,1.04,26.22,2.29,27.27,1.22.66-3.8-.33-3.33-2.35-5.08-.63-.55-.54-1.83-.65-1.9ZM541,494.99c.97-.83-2.62-5.04-4.49-5-1.11.02-1.98,1.34-3.02,1.5-.86.13-2.07-.62-2.91-.43-2.2.51-3.86,2.52-6.57,1.93.68,1.39,5.23,3,6.49,3.08,3.04.19,7.03-1.99,10.5-1.1ZM547,512.01c-2.2-2.5-58.15-.68-66.55-.96-16.23-.53-31.15-2.57-46.85-5.15-16.26-2.67-33.05-5.54-48.32-11.68-1.69-.68-3.41-1.32-5.28-1.21-.82,3.26,2.14,1.18,3.11,2.59.56.82.49,2.4.96,3.38,6.79-1.98,4.85,1.56,6.96,3.47,10.61,9.57,54.18,16.3,69.41,17.56,8.65.71,17.15,2.05,25.03,1.96,11.58-.13,29.05-1.47,39.08-.02,1.27.18,2.76.3,4.03.16,2.4-.26.62-2.29,2.42-2.09,2.31,6.26,4.09,14.06,13.01,12-3.13,6.17,7.53,3.1,6.16,9.89l2.84.11-2.99,3.99,3.82-.75.72,1.82,3.34-1.01,4.11,9.41-1.97,1.54c.27-3.07-2.98-2.46-3.82-3.26-.89-.86.71-6.23-5.18-.24l3.97,4.45c-3.76-.24-3.62,4.66-4.95,5.58-2.91,2.01-8.77-1.43-11.92.59,1.54,5.23-2.63,6.62-3.55,8.83-.33.79.27,2.62.03,4.04-.21,1.26-1.42,2.68-1.48,3.72-.12,2.06,4.03,1.96,2.89,5.29,3.93-.23,4.92-3.82,2.98-6.99l3.07-.51.47-2.53,4.47.03-.99-2.99,6.94-.12.07-2.88,10.99.98c-3.95-3.48-.36-5.33-.35-7.49.02-4.25-.51-3.32.21-8.96.18-1.39-.64-5.77-.86-7.53l7,.99c-.87-5.23-5.81-5.23-9.99-4.01l.53-3-4.05-.96-.69-6.88c-4.13.38-2.01-2.39-4.19-5.24-2.7-3.53-8.29-2.75-9.05-7.77-.78-5.18,4.17-3.99,4.46-8.13ZM506.99,497.99c-1.82-6.38-8.78-2.51-12.99-1.98.49,1.32,5.3,1.75,6.62,1.87,2.13.19,4.25.19,6.37.12ZM276.98,496.01c-4.7.21-3.71,6.98-.48,8.99,1.14-4.03,2.91-5.22.48-8.99ZM673.99,511c-.59-1.71,3.29-8.46.5-9-3.92-.75-3.58,12.09-.5,9ZM638.94,529.04c-.29-.2-2.86-.46-3.02.56-1.49,2.85.09,5.46.09,8.39l3.79-5.64c-.04-.7-.72-3.21-.86-3.31ZM407,558.01c.59,5.85,2.35,9.19,8.58,6.05.43-3.13.87-7.09-2.09-9.03-2.48,1.86-.25,7.03-4.28,4.67-.35-.21.3-2.64-2.22-1.69ZM398.89,557.12l-8.77.99-.11,3.89,3.98-3v4.01s5.06-.47,5.06-.47l-.16-5.42ZM576.81,559.21c-1.56-.91-9.88,2.24-10.63,4.5-1.74,1.44,2.94,6.13,3.55,6.3,5.09,1.43,9.48-4.2,14.11-5.16v-4.71s-3.82-1.14-3.82-1.14l1.99,3.5c-2.39,2.26-4.51-2.9-5.19-3.29ZM519.83,564.15c-14.45-7.54-10.86,11.88-1.82,7.36,2.43-1.56,2.37-4.8,1.82-7.36ZM306.98,578.02c-5.94.88-2.79,6.13-2.89,9.48-.34,11.38-4.9,28.86-6.99,40.1-2.5,13.46-3.65,26.59-5.42,39.72-.28,2.1-2.3,5.65-2.66,9.19-.32,3.1.16,6.36,0,9.48l4.79-6.69c1.02-3.38-.62-8.55.18-11.6.27-1.05,2.39-.95,2.87-2.32.94-2.67-.64-7.07.31-9.76.68-1.95,2.93-1.62,3.86-8.2.74-5.19,2.12-7.8,2.76-12.23.73-5.02-.24-10.16,2.42-15.05l2.87-.69c1.03-4.73-2.33-7.65-2.13-9.91.17-1.99,2.44-2.74,2.87-4.25s-.13-3.28.2-4.63c.21-.87,2.06-.55,2.03-1.17-.1-2.27-4.03-3.65.67-7.54l12.28,2.05c.52-1.97-.81-1.93-1.68-2.81-4.86-4.92-13-7.53-16.34-13.17ZM619,599.01l-6-1.02-.11,3.9c-2.82-.34-4.83,2.43-6.68,2.92s-4-1.03-5.62.21c-2.12,1.61-.6,4.69-4.41,4.09l-.18,3.88c.87,1.03,6.78-4.41,7.82-4.92.73-.36,2.44.31,3.06-.23.45-.4-.39-2.22.76-2.88,2.98-1.7,9.63-.9,11.36-5.95ZM307,660.5c-.82,3.99.6,10.2,0,14.5l5.46-7.04c3.54-9.34,4.91-19.9,7.76-30.24.64-2.33,2.69-3.96,3.32-6.68.45-1.93-.73-4.98-.23-6.37.95-2.62,3.29-2.65,4.35-4.01,2.98-3.83,2.01-9.63,3.36-14.14l-4.01.48v-3.36c-.17-1.41-4.48-.88-4.9.94l.88,5.42-3.98-1.99c1.08,4.63,5.19,7.53,1.98,11.99h-1.47s.23-1.76.23-1.76c.94-2.47-1.52-.4-1.79.24-.65,1.56-.2,2.97-.96,4.51l6,.5c-1.16,1.8-3,.71-4.57,1.45-3.23,1.5-3.22,5.52-7.4,5.09-1.43,1.64,3.05,5.74,4.97,5.98v.96c-7.38,3.65-6.01,13.34-7.02,20.49-.26,1.83-1.91,2.77-1.97,3.03ZM593,613.01c-5.33-1.13-8.97,2.31-14,3l1.01,2.99-4.86.17-1.14,4.83c.34.34,6.05-.97,6.96-1.53,2.18-1.33,1.62-3.71,2.24-4.25.86-.75,8.75-.93,9.79-5.2ZM176.76,617.24c-.37-.38-4.6-1.44-4.76-1.25.83,4.3-3.46,4.33-2.06,9.38,3.77,1.38,8.11,5.82,11.04,1.12-3.58-1.37-3.02-8.04-4.22-9.26ZM178.01,637c-5,.78-6.73-5.12-12-4-1.26,4.56,5.31,13.74,5.03,16.46-.39,3.8-6.15,2.48-5.04,8.99,1.27,7.41,14.39,2.38,15.84,4.72-.48,3.29,1.83,5.5,2.21,8.27.63,4.63-1.33,9.25-.07,13.81l1.88,1.21c3.45.16,4.66-.53,4.76-4.1.2-7.07-2.06-22.54-4.39-29.09-1.73-4.86-10.77-10.45-8.22-16.27ZM557.99,702.99c-.93-4.93,2.14-26.61-7.4-23.95-4.16,1.16,1.37,7.42,1.98,9.88.84,3.4,1.03,6.03,2.06,9.77.48,1.74-2.14,4.85,3.35,4.3ZM289.12,700.87c-.26-.34,1.87-5.91,1.91-8.33.01-.93-.5-5.48-2.02-5.54-2.28,7-1.84,12.21-.9,19.39.21,1.62,1.65,2.88,1.94,5.05.34,2.45.32,21.43-.32,22.34-.28.4-1.57.1-1.68.24-1.62,1.95,1.77,1.88,1.97,2.61,1.28,4.64-2.34,4.18-2.05,5.79.3,1.7,2.14,5.44,4.53,4.58,3.56-3.58-.23-6.21-.49-8.56-.18-1.7,1.12-3.86,1.08-5.96-.08-4.33-3.03-9.81,3.42-12.49,2.4-1,1.03,5.46,3.12,6.49-4.33,5.34,3.43,9.97,1.37,16.51h2.99s2.01-5.52,2.01-5.52c-5.65-1.85.34-9.99-.02-10.46-.13-.18-1.99.61-2.1-1.49-.15-2.97,1.76-4.11,2.07-6.09,1.06-6.73-1.22-9.27-1.9-14-.56-3.91.29-8.45-.05-12.45l-3.89.12-6.13,12.87-1.96-.62c1.03-3.84-2.3-3.73-2.9-4.49ZM557.99,704.01c-6.85-.06-3.41,3.76-3.92,6.31-.11.52-5.17,6.49-6.11,8.16-2.02,3.6-3.08,8.8-4.19,11.26-.15.33-4.13,3.1-4.81,3.82v1.95s1.91.58,1.91.58l.11,1.92c-6.1-.49-9.46,7.99-13.99,11.5l1.99.99c-5.08,3.93-7.24,9.02-6.99,15.5l5.99-.99c-1.52-3.92,1.59-4.92,1.69-5.22.6-1.78-.72-3.88,3.09-6.29l-1.77-3.5c5.72,1.63,4.99-4.24,9.99-3.01l-1-2.98c4.87.72,6.44-2.72,7-7l-3-2,2.95.26c-.64-3.28,2.46-2.03,4.4-3.38,2.45-1.71,5.46-4.69,5.65-7.87l-3-.99,8.29,1.04c3.54-5.15,8.44-8.02,7.7-15.05-4.24-1.06-3.16,2.62-4.28,3.71-.27.26-6.46,3.56-6.71,3.28-.84-4.56-2.17-7.18-1.01-11.99ZM284,800h20.5c1.15,0,2.49-3.04,2.55-4.45.17-4.35-2.9-5.76-3.02-6.26-.66-2.92.4-7.15-.04-10.29l-1.05,9.54.95,8.35c-8.08-1.56-17.7,6.18-15.82-6.34.32-2.17,1.88-4.38,2.44-6.56,1.51-2.04,1.87,1.7,5.22.35,5.49-2.21-.04-6.25-.3-7.24-1.14-4.27-2.31-14.15-2.86-18.96-.24-2.13,2.11-8.03-2.05-8.16-.42-.01-.2,7.09-.69,8.37-.56,1.46-2.57,1.32-2.84,2.34-1.63,6.27,1.03,20.33.07,27.85-.49,3.81-4.55,6.63-3.05,11.45ZM518.99,773l-4.99,3.5,3,3.49c-5.71-.39-6.22,6.59-8.38,9.65-.51.72-8.81,6.74-4.85,7.31h1.51s.72,3.05.72,3.05c3.74.78.75-3.37,2.96-5.53,1.28-1.25,4.59-1.19,4.91-1.59.38-.48-.04-3.14.66-4.83.38-.92,2.43-4.93,3.04-6.02.45-.81,2.03-.85,2.28-1.15s-1.8-6.05-.85-7.86ZM504.09,802.95l-.59-3.95c-2.02,3.51-8.26,3.17-7.49,8l3.49-2.97,4,5.96c2.3-1.96,4.17-3.65,3.47-6.97l-2.87-.08ZM294,807.01c-3.69.37-6.21-1.31-8.51-4h-1.48c1.67,3.36-8.02,6.13-7,8.48,6.94,5.67,13.61,3.25,16.99-4.48ZM518.66,809.71c4.03-9.17-11.48-4.87-7.72.84,1.29,1.96,3.67,2.96,5.98,2.33-.74-2.24,1.63-2.93,1.74-3.18ZM494.28,822.74c-1.81-2.76-.63-9.58-1.77-12.73-.82,2.26-4.55,2.54-5.24,3.25s-.51,2.93-1.38,4.11c-1.84,2.49-10.62,12.31-9.88,15.11,1.3,4.93,5.05-.98,5.59-1.34,4.77-3.17,9.37-6.08,15.4-5.14.67-2.5-2.05-2.24-2.72-3.26ZM222.7,816.3c-1.36-1.93-10.85-3.31-13.26-3.2-2.69.13-12.41,6.92-8.95,10.89,4.39-5.13,9.75-9.98,16.56-5.33.39,8.56-3.44,11.68-9.71,15.69-2.06,1.31-3.03,5.06-7.9,1.71l-.44-7.06-8.98,4.99.99-7.99-7.21,2.28-6.78,4.2c3.53,5.22,7.85,5.58,13.19,7.61.73.28.8,1.72,1.5,1.87,5.08,1.08,13.67-.77,17.8,3.03.74.33-.44-2.38,2.96-2.09l7.53,2.08-3.99-2.98c2.77-.56,6.71-8.22,7.55-10.95,1.14-3.71,1.4-11.55-.86-14.76ZM247.85,816.12c-1.39-.82-6.28.26-4.34,3.86.4.74,1.6,1.28,1.97,2.04,2.1,4.39-1.57,5.61-2.28,8.68s.08,7.01-.21,10.29c-2.86.83-4.74-2.25-6.74-2.77s-10.24,1.27-12.17,2.35c-7.28,4.04,2.11,5.78,6.3,4.29,2.01-.72.15-4.25,5.8-1.74,4.89,2.17,5.46,1.62,10.08,2.94.66.19,3.45,3.76,7.14,2.88l1.46-2.28c-5.34-7.25-.25-23.57,9.85-23.44,1.41.02,3.24,1.65,3.76,2.8,3.26,7.2-7.72,10.59-7.35,17.51l-6.12,4.98c-.23,2.68,3.05.39,5.22,1.53.82.43.85,1.94,1.34,2,3.21.39,7.9-5.47,9.06-5.88,2.29-.8,5.43.37,7.7-.17.76-.18.59-1.93,1.26-1.98,11.29-.76,18.96-2.05,29.68-5.25l10.71-6.26-1.49-3.52-24.93,5.13c-5.53,3.19-17.34,1.46-16.63,9.83-9.22.86.44-5.16-1.17-11.19-1.05-3.91-6.77-7.5-8.2-9.81-.8-1.3-.44-3.73-1.52-4.54-.78-.58-4.4,1.21-6.01-1.37,1.13,2.19-7.22,3.1-8.52,2.98-3.11-.29-3.05-3.53-3.67-3.89ZM512.72,834.33c-2.08-.9-4.55-.11-6.72-.32.3,2.48.54,6.46,2.61,7.97,1.58,1.15,17.66,1.59,20.85,2.07,2.15.33,4.45,3.08,7.54,1.95.73-3.22-1.42-3.47-3.79-4.68-7.49-3.81-13.92-4.14-20.48-6.99ZM505.73,855.32c-2.61-.77-13.45-2.88-16.32-3.32-2.52-.39-4.52,1.09-7.19.36-5.26-1.42-10.89-12.76-18.09-9.25-2.04,4.07,2.95,11.6,6.58,12.67,2.66.79,5.95-.22,8.74.26,3.44.59,8,4.7,11.48,5.52,4.21.99,12.5,2.69,16.63,3.37,6.23,1.02,14.49-.41,20.89.95l2.05-2.89c1.03,2.5,3.67,1.04,4.28,1.33.86.4,4.31,3.94,5.95,4.45,2.9.89,10.13-.57,10.29,3.2l1.98.02v-3.01s3,1,3,1c-1.23-4.04-6.07-7.23-9.97-5l-1.02-4.99h5.99s-2.99,2.98-2.99,2.98l7-2.49c-4.06-.07-2.31-2.23-3.65-3.55-2.67-2.63-8.81-4-12.35-2.42-2.86,1.27-.68,3.96-1,4.48-.15.24-3.41-2.28-3,3-1.7-1.8-4.07-1.48-5.7-2.34-.43-.23-.23-1.5-.35-1.58-2.11-1.49-1.77,1.72-2.58,1.94-4.67,1.3-8.4-3.37-12.08-3.81-2.36-.29-4.88,1.41-7.58.78-.68-.16-.71-1.59-.96-1.67ZM571,843h-14c-.25,5.67,8.16,1.59,8.86,2.1.84.61,1.1,5.46,4.19,1.45.91-1.19,1.15-2.06.95-3.55ZM603,843c-1.61-.93-13.95.69-17,0,.95,2.09,4.55.42,6.98,1.52,2.19.99,5.08,5.99,8.45,7.55,2.25,1.04,7.46,1.36,8.31,2.2.46.45,5.5,10.33,5.98,11.51,1.43,3.53,2.82,8.1-2.23,8.32-6.13.27-7.61-6.8-10.5-10.6-1.14-1.5-2.81-2.53-4-4-1.99-2.47-2.2-8.27-7.09-4.07-4.49,5.73,9.72,16.08,4.98,19.48-3.65,2.61-12.49-6.71-13.38-6.72-.56,0-2.21,2.03-3.48,2.42-3.47,1.06-13.04-1.42-16.53-3.6-.81,4.16-4-.98-5.49,2.99,2.7.92,5.61,1.98,8.24,3.08,5.28,2.19,5.2,1.3,11,2.19,3.75.58,6.64,2.73,10.72,3.28,9.02,1.22,31.85,2.3,40.59,1.51,5.61-.51,8.12-2.81,8.39-8.7.2-4.4-1.84-4.65-3.14-7.65-1.61-3.71-.96-8.43-6.8-8.69-1.27,6.43,1.61,9.96,3.66,15.52-2.13,4-6.04,2.92-8.11-.61-1.67-2.86-1.89-6.87-2.81-9.14-4.23-10.41-6.91-10.85-16.42-16.14-.5-.28-.26-1.59-.33-1.63ZM576.11,860.08l-.1,1.4c.9,2.31,5.96,1.34,6.88-.98-1.35-3.28-7.79-8.2-4.83-1.05l-1.95.63Z"/>
  <path d="M329.99,410l-.44,5.07c-1,1.48-4.48-.24-3.55,2.92,2.94-.57,5.68.8,8.5,1,8.93.61,21.33-1.26,30.05-.04,2.61.36,3.87,2.03,6.99,2.18s1.71-2.4,4.92-2.25,4.38,1.82,6.99,2.17c17.64,2.41,33.09-.57,51.86,3.98.82.2.21,3.01,5.12,1.92,2.15-.47,3.12-2.38,5.97-1.97,3.77.54,12.06,4.33,16.15,4.97,22.82,3.59,47.58-3.39,69.89-7.01,21.73-3.53,42.3-2.06,64.11.01,6.63.63,13.78.74,20.46,1.05l-1-11c12.09-.07,15.32,16.96,15.86,26.63.2,3.54,1.2,7.67-2.86,9.37-1.01-3.7-4.76-13.43-8.55-14.02-5.28-.82-3.61,2.84-4.71,3.83-.67.61-2.22-.02-2.76.2-.2.08.88,1.72.89,2.58.1,4.91.32,10-.89,14.76l-2.5.64-4.49-18.99-8.41,17.6c-4.35,7.11-23.91,28.01-31.3,30.19-2.52.74-5.47-.34-7.6.18-.58.14-5.95,7.52-9.66,6-4.6-13.88-17.28-9.09-25.76-1.68-.9.79-.66,2.67-1.55,3.45s-4.47,1.41-5.72,3.26c-3.13-7.96-2.19-11.7-12.47-9.95-2.5.43-7.94,1.69-10.62,2.37-9.7,2.44-10.41,9.54-13.54-6.48-7.62-.11-15.31.34-22.93.1-3-.09-13.08-3.08-14.32.6-1.35,3.65,3.03,9.79-1.14,11.87-3.69,1.84-4.95-.97-7.54-1.45-4.69-.87-9.01,1.89-9.76,1.76-.84-.14-1.85-1.62-3.24-1.79-5.49-.64-9.2.53-14.81-2.18-6.26-3.03-4.75-8.97-9.28-13.72-8.17-1.68-8.31,5.71-15.91-.14-.92-.71-1.18-2.21-2.24-3-7.3-5.47-18.85-10.86-21.23-20l-2.99,1.01.58-3.05-3.45-1.07c2.1-6.57-4.74-7.61-6.63-10.89-.69-1.19-1.28-3.52-2.44-5.76-.65-1.25-.32-2.9-1.38-3.99s-6.62-2.93-8.31-3.1c-3.27-.33-11.72.87-12.96-.05l-1.41-5.07,2.99.99v-13s9-1,9-1ZM428.47,438.54c-4.99-5.98-10.43-6.12-17.92-5.49-12.28,4.79-7.04,18.78-3.52,28.42,2.63,1.62,18.9,1.32,20.75.3,3.34-1.84,2.98-18.2,2.19-22.06-.18-.75-1.16-.75-1.51-1.16ZM396.7,437.77c2.17-4.02-5.21-4.14-7.12-3.55-1.32.41-1.07,2.31-2.34,2.77-1.4.51-8.33.88-9.2,2.08-.34,3.54,2.28,6.11,3.12,9.27,1.13,4.26,2.33,16.91,4.87,19.13,1.77,1.55,5.89,2.3,7.97,1.02.27-.17,3.83-4.82,3.88-5.14.18-1.06-2.05-3.45-2.46-5.28-1.26-5.69-1.83-13.74-.39-19.38.21-.82,1.57-.76,1.66-.93ZM571,436c-2.52-1.07-12.46.78-16,0-.66,2.89,1.52,6.61,4.53,7.05,1.86.27,1.22-1.83,2.14-2.04,2.1-.48,10.81.5,11.33-.02.6-.82-1.75-4.89-2-5ZM470.88,443.12c-4.51-1.42-9.6-.11-14.14-1.37-1.74-.48-2.73-2.26-5.29-2.69-15.7-2.68-18.87,15.47-15.54,27.29,4.25,3.81,32.32,6.13,35.13,4.21,2.46-1.68-.77-5.98-1.11-8.98-.71-6.23,1.58-12.27.95-18.46ZM546.78,440.28l-9.63-1.12-3.16,7.85-7.98-2.01c.22,5.32-3.53,11.38-3.11,16.53.03.32,3.39,5.12,3.69,5.37,6.12,5.11,22.13,4.62,23.46-5.35.36-2.69.45-13.66-.03-16.09-.43-2.2-1.97-1.84-2.72-2.83-.46-.61-.15-1.95-.53-2.35ZM362.99,450l2.95-6.36-4.4-3.63-3.61,7.45,5.05,2.55ZM499.86,443.13c-5.05.86-12.47-2.59-16.85-.61-5.74,2.59-8.89,24.21-3.57,27.53.58.36,11.91,3.84,13.01,3.99,3.36.46,16.88.51,20.02-.07,1.36-.25,2.9-1.26,3.59-2.41,1.37-2.3,1.57-22.93.42-25.54-3.58-8.12-13.73,2.3-15.46.98l-1.15-3.87ZM370.99,446c-4.01-.81-4.48,3.39-5.99,5.99l6.12-1.43-.13-4.55ZM556.11,470.89c16.19,5.73,22.76-30,4.6-24.67-5.46,1.6-3.42,10.64-3.78,15.2-.25,3.11-2.83,5.75-.81,9.48ZM410.63,482.14l-1.14.85c-5.76,10.11,8.36,6.78,14.99,7.02,3.06.11,6.96,2.73,9.49-.5-4.06-8.49-15.17-7.17-23.34-7.37Z"/>
  <path d="M381.63,335.66c-.73,1.9-3.05,3.75-3.28,7.98-.56,10.43,6.45,3.33,12.6,4.26l2.04-2.9-1.01,5.48c3.28,2.32,6.26-5.4,8.95-6.1,5.76-1.49,14.56,2.6,20.03,4.16,2.59.74,11.8,2.68,13.26,3.47,18.12,9.86,28.51,11.96,49.34,14.9,2.28.32,19.64-2.09,22.68-2.99.62-.18,4.55-1.26,4.8-1.4.94-.5,1.16-3.15,3.68-4.3,8.21-3.74,22.79-6.43,31.71-8.29,5.04-1.05,9.75-5.31,14.41.71,2.84,3.67,2.26,10.52,9.03,9.22,6.36-8.95,1.31-20.9-3.87-29.39-1.32-2.16-3.57-6.14-6-6.5l.49-1.99c8.94-1.16,10.96,6.57,15.79,10.72,9.97,8.58,26.43,12.84,37.2,21.3,3.1,2.43,3,4.81,4.95,7.05,7.8,8.98,21.93,12.44,31.2,18.76,6.72,4.57,12.63,8.2,17.15,14.85.04,2.79,3.43,13.06,3.05,14.57-.11.44-3.45,7.7-3.81,8.29-2.72,4.5-7.91,4.83-9.51,6.49-.4.41-3.33,6.63-3.47,7.53-1.35,8.38-.56,15.17.9,23,1.12,6.01-2.35,7.36-2.74,11.17-.32,3.14,1.73,7.71.77,11.59-.08.31-2.41,2.84-2.76,5.37-.25,1.8,2.31,2.33,1.78,4.31h-3c-1.28,3.71,3.22,4.24,3.77,5.23.47.84.2,2.68.52,3.98.22.92,1.47,1.87,1.46,2.32-.01.59-3.37,3.22-2.89,5.31h-4.71c-2.27-3.6-.33-8.7-1.16-12.17-.19-.78-1.97-.67-2.04-1.23-.27-2.1,2.67-4.52,3.08-7.92,2.01-16.66.28-53.91-8.78-68.27-8.39-13.28-25.88-10.33-37.56-18.44-10.09-7.01-21.46-19.62-32.32-25.68-15.21-8.48-23.22-1.8-37.94,1.77-6.57,1.6-16.88,2.57-22.71,4.29-1.93.57-7.91,4.83-10.44,5.56-1.72.49-3.52.24-5.27.25v-4.02s-3.94-.08-3.94-.08l-.56-2.96c-7.38.64-16.61,1.04-24.06.13-1.8-.22-1.23-1.75-2.15-2.03-1.71-.52-13.52-.99-14.2.02l-.08,4.92-2.49-2.01-.6,1.84-7.9-1.84c-.61-3.68,4.23-.11,3.01-5,2.17-.17,3.51,1.95,4.97-.48l-2.1-6.39c-3.86-.72-8.6.53-12.32-.16-4.77-.89-15.06-4.75-20.06-5.08-2.93-.2-4,1.72-6.05,2.06-3.1.52-11.16,1.53-13.9,1.01-1.97-.37-11.11-5.26-9.57-8.24-.54-3.75-5.78,3.46-6.38,3.89-17.27,12.21-41.31,19.39-55.83,32.4-5.56,4.98-4.77,6.54-7.7,11.32-.84,1.36-4.32,1.53-3.07,5.68l-2.98-1c-.08,4.53.46,13.45-6,12.99.39-2.47-.59-6.1-.02-8.29.24-.91,2.07-.94,2.8-2.39,1.48-2.92-.15-7.06,1.37-9.65.86-1.45,2.94-1.55,2.89-2.2-.02-.28-1.46-5.14-1.6-5.39-1.18-2.14-4.6-3.15-4.45-6.06,3.33,0,4.44.4,6.48,1.99,4.08-4.61,9.07-7.8,14.51-10.5-3.22-.68-1.41-3.02-2.21-4.75-.91-1.96-3.02-2.48-2.78-4.74,2.24.34,2.7-.13,3.5-2,.52,2.89,4.06,2.85,4.59,3.6,1.11,1.57-.06,5.12,1.9,5.39,1.09-3.4,8.62-4.94,11.76-6.71,3.45-1.95,8.33-6.49,12.07-8.17,2.58-1.16,7.96-1.77,8.95-2.34.33-.19,1.83-3.17,3.17-4.33s4.1-1.62,4.6-2.39c.98-1.5.1-3.73.48-5.36.18-.76,1.73-.59,1.94-1.4,1.22-4.73.81-7.3,4.41-11.93,1.08-1.38,11.33-10.35,12.13-10.35,4.59,4.02.92,5.74-.56,9.43-.68,1.69-.65,3.51-1.31,5.22ZM589.61,350.48c-2.27-1.53-4.2-3.5-6.11-5.46-4.43,6-.03,10.62,4.45,14.53,14.14,12.35,37.75,20.45,49.13,32.87,1.41,1.54,1.76,3.99,2.2,4.36.6.51,2.28,0,2.58.3.32.33.15,5.19.57,6.99.95,4,5.24,7.79,4.72,12.78l6.85,1.15-.98-7.01,1.98,1.02,2-12.01c-6.63,3.15-6.39-6.06-7.22-6.83-1.05-.97-1.33-.92-3.13-2.76-7.1-7.24-21.8-8.79-28.65-16.93-2.99-3.55-3.72-8.93-8.24-11.83-2.08-1.34-4.45-1.43-6.27-2.62-2.3-1.49-5.71-6.05-6.75-6.74-2.15-1.42-4.22.14-7.12-1.81ZM589.77,373.25c-.86-.51-4.01-.71-4.76.24,2.54,1.28,4.27,3.96,6.48,5.52,1.56,1.1,3.55,1.21,4.88,2.12,3.45,2.37,21.97,16.38,24.63,13.86.25-5.52-8.06-6.92-12.3-9.24-5.73-3.13-11.46-6.45-17.61-10.4-.73-.47-.91-1.87-1.32-2.11Z"/>
  <path d="M522.98,262.02c.12.08-.06,2.36,1.96,2.02l-.02,1.89c-3.47,1.87-3.85,7.61-9.93,7.07.46,3.13,1.6,11.21,5.48,11.65.52.06,9.03-3.81,9.49-4.2,1.66-1.4,1.3-5.09,4.77-6.23,14.56-4.77,45.92-6.56,60.22.31,1.17.56,1.83,2.24,3.12,2.88,2.04.99,6.26,1.7,7.86,3.14,1.7,1.54,1.32,3.82,2.13,5.68.31.7,1.7.72,1.89,1.47,1.06,4.34-1.73,4.95-1.9,8.83l-8.05.47,1,2.98c-4.31.35-6.57,1.22-10.57-.91-1-.53-1.92.54-1.42-2.07l12-1.51c5.89-4.99-1.74-9.27-6.32-11.7-19.58-10.39-32.28-9.74-52.23-1.85-5.45,2.15-10.87,1.24-9.47,10.05,9.72-2.47,10.21,4.78,15.63,7.87,8.46,4.81,16.33,3.7,24.83,5.17,5.01.87,12.78,3.53,18.04,3.96,8.48.7,24.86-1.72,31.79.21.79.22,2.07,1.29,1.71,1.77-2.27,1.13-5.28.52-7.28,1.06-3.57.96-4.51,1.18-9.2,1.97-9.97,1.67-18.65,3.88-29,2.97-10.91-.96-60.48-18.8-67.91-26.09-5.8-5.69-7.72-7.7-16.31-10.69-7.17-2.5-13.99-1.54-21.36.23s-13.78,7.19-18.4,8.64c-4.98,1.56-10.54.36-15.05,1.14-16.81,2.94-35.41,11.64-53.04,14.72-23.19,4.05-50.44,3.96-69.36-11.44,3.1-1.86-.11-3.4.35-4.5,2.31-5.55,11.59,2.51,14.33,3.74,4.45,1.99,15.05,4.93,19.75,5.25,11.5.78,37.59.2,47.72-4.26,3.86-1.7,3.39-5.34,4.73-6.27,1.96-1.36,6.48.15,8.89-.61l1.05-6.22c-3.77-2.05-7.33-4.95-11.02-7.03-1.33-.75-17.18-6.56-13.88-9.61,3.75,0,7.47-.18,11.22.28,2.65.33,15.06,5.74,16.71,7.27,1.39,1.29,1.13,3.4,3.06,4.94s4.94,1.49,7,3.05c.87.66,1.03,3.98,2.98,2.44.24-.19-.18-1.95,2.39-3.1,2.33-1.05,8.42-1.51,10.65-.4,1.58.79,1.79,3.25,2.08,3.45.46.33,9.35-2.68,10.66-3.58,4.02-2.79,2.99-9.83,10.24-8.35l-1.99,2.98c2.42-.25,5.24.38,7.56.09,1.03-.13,2.93-2.58,7.06-2.95,6.88-.61,4.93.77,11.1-1.9,7.08-3.06,5.17.05,7.96,1.83,2.11,1.35,5.02-.41,4.39,3.8,2.38.84,6.52-.44,7.38-2.83,1.21-3.37-3.16-2.7,5.54-3.03l-.99,2.99h3s-.99-3.99-.99-3.99l3.99.99v-5.49s1.99-.48,1.99-.48Z"/>
  <path d="M255.99,461l-5.98-2c-.93,1.29,2.18,11.26,3.07,13.21.98,2.15,5.5,2.59,3.93,6.79l2.98-5c.52,4.15-1.82,7.58-.18,11.6,1.28,3.14,8.94,9.6,9.73,11.44.92,2.15-1.67,6.94.71,9.71,1.27,1.48,6.99,3.88,8.41,7.55.81,2.09-.18,4.01,1.26,6.28,1.35,2.13,4.12,1.96,4.82,2.67.82.84.97,5.05,1.75,6.76,1.17,2.57,3.81,3.94,3.51,7l2.39-1.01c.71,3.09,3.88,1.49,4.52,2.06.29.26-.03,2.66.61,3.87.75,1.44,4.28,3.62,4.25,4.53-.04,1.12-3.09,1.8-.85,5.08,1.96,2.87,6.1,1.27,5.09,5.45,5.09-4.35,2.9,1.12,3.86,2.41l3.01.66c-.71,5.58,1.88,3.18,2.9,4.14.54.51-.19,2.23.86,2.82,1.21.68,4.13.48,6.03,1.34s2.6,5.03,4.36,6.09c2.33,1.41,6.3.58,6.98,1.01,2,1.23-2.05,3.48-1,5.52,4.01-.94,2.47,1.84,3.25,2.7,2.26,2.47,8.06,3.19,8.82,3.75.35.25,3.7,5.79,4.14,6.28.86.97,9.41,3.33,11.2,4.4,1.04.62,1.42,2.29,2.37,2.87,4.94,3,10.39,7.96,16.21,6.01l-1,2.99c7.38,1.17,13.92,7.17,20.8,9.71,10.41,3.85,22.13,4.34,32.01,7.99,3.71,1.37,6.85,2.52,10.82,3.18,6.36,1.05,14.23-.28,19.85,3.15l2.03-3.01c1.04,1,1.77,2.23,3.23,2.75,2.54.9,21.68.73,24.82.29,2.64-.37,4.05-2.27,6.98-2.17,1.87.06.95,1.96,2.9,2.2,13.19,1.66,27.13-2.59,39.36,2.87,2.92,1.3,9.85-1.99,10.93-4.24.43-.91-.94-3.2,1.26-4.21l-5.98-1.51,1.92-4.53-5.91-3.46-1.53,3.99-1.49-3-2.97,1.99c-2.03-2.54-1-4.84-3.17-7.34-1.96-2.25-4.55-2.19-5.85-4.64,3.86,1.94,10.69-1.29,13.39-.77,2.36.46,4.15,7,8.12,1.76l.5,2,3.98-2c2.2,5.3-.98,5.51-3.94,9.5,2.9,1.76,5.12,7.98,8.38,7.54,1.49-.2,2.48-1.87,4.01-1.95,1.25-.07,2.77,1,4.11.95,2.28-.08,4.58-1.49,6.45-.55-4.85,2.92-3.08,7.12-4.19,10.81-1.44,4.77-16.12,8.19-20.82,9.7l1.01,2.98-4-.98c2.91,2.43.73,4.34,1.16,6.29.35,1.59,2.74,2.42,3.35,3.74.56,1.21-.48,3.3.38,5.5.69,1.79,2.74,3.12,3.02,4.18.18.69-2.6,11.75-5.89,9.3-.28-.29-1.09-7.11-1.33-7.78-.55-1.49-3.62-6.06-4.36-9.03-1.01-4.07-.68-9.05-2.24-12.81-.67-1.61-7.97-8.08-9.5-8.56-1.17-.37-11.69-.07-12.89.21-.8.18-.27,1.82-2.12,2.06-22.17,2.9-62.03-1.21-83.69-6.46-25.04-6.06-43.93-12.2-66.52-26.99-2.45-1.61-10.23-5.88-11.84-7.65-.88-.98-2.09-6.7-3.52-3.24l-.5,2.28c-2.94-.3-5.6-1.83-8.2-2.61-1.42-.43-3.39.92-5.56-1.36-2.67-2.8-.57-6.13-1.11-9.08-1-5.45-4.34-3.79-7.55-5.54-1.71-.93-2.81-3.16-4.71-4.29-4.54-2.7-10.26-4.28-14.3-7.66-1.61-1.34-.69-4.11-2-5.04-1.05-.75-3.63-.16-5.63-1.37-2.97-1.79-7.4-11.77-9.48-15.3-.99-1.68-4.58-5.22-5.38-6.84-3.12-6.31-2.06-5.27-6.16-11.34-6.49-9.6-11.79-24.99-18.01-35.53s-17.01-20.37-17.48-34.57c-.06-1.73,1.18-4.08.97-4.94-.3-1.26-2.8-1.22-2.96-2.12-.66-3.77,3.86-4.82,6.63-3.54l8.44,12.1Z"/>
  <path d="M751.32,253.74c2.64,5.6,4.63,13.45,7.29,19.62,8.19,19.01,12.06,40.93,20,59.99,1.04,2.49,4.08,13,4.61,13.49.43.4,2.03-.08,2.52.35.58.51,1.4,5.57,3.27,6.79-2.44-.99-3.11,1.82-3.72,1.97-3.32.82-9.01.28-12.53,1.29-2.61.75-5.49,4.25-6.54,4.67-5.56,2.27-11.4,4.39-16.58,6.69-11.88,5.27-25.82,11.3-39.23,13.38-2.73.42-5.1-1.26-6.79-1.04-.66.09-.54,1.86-1.3,2.04-2.16.51-5.04-.37-7.63.21s-4.38,3.8-7.7,2.8v-7s-3,1-3,1c0-5.61.47-10.81-1.27-16.24-2.02-6.33-5.81-13.12-8.53-19.43-.84-1.94-.43-6.01-1.18-7.68-.52-1.16-2.21-.35-2.76-.85-3.03-2.76-6.53-16.94-7.31-21.26-.31-1.71-1.96-2.63-2-4.03-.02-.58,1.76-.31,2.01-1.2.7-2.42.11-7.04,1.24-9.64.65-1.49,12.95-19.5,14.73-21.25.94-.93,10.72-9.66,11.42-10.06,1.72-.98,4.52-.86,5.67-1.88,2.49-2.2,1.95-3.27,7.09-5.88,13.95-7.08,27.32-8.91,43.13-14.68.88-.32.41-2.56,3.21-1.98,5.1,1.05.1,6.04,1.86,9.78ZM685.66,346.29c2.15,5.89,4.6,14.31,6.11,20.43.98,3.95-1.23,8.68,4.74,10.27l31.69-8.29c10.91-4.01,24.11-12.97,34.62-16.38,5.22-1.69,12.29.32,12-6.6-6.01-14.97-11.48-30.21-16.52-45.54-1.04-3.17-1.53-7.86-2.65-11.35-3.56-11.06-8.94-21.68-10.59-33.42-3.39-1.71-6.19,1.54-8.86,2.29-24.66,6.98-43.29,14.82-58.52,36.54-4.58,6.53-9.17,12.75-7.63,21.19.77,4.23,5.91,9.7,7.81,13.41,2.82,5.53,6.09,12.76,7.79,17.44Z"/>
  <path d="M410.21,214.78c2.72,1.52,12.49.28,16.2,3.28l5.3-4.9c8.37,3.59,26.53-10.35,25.18,5.73-2.9.84-8.05.87-10.19,3.04-1.36,1.39-.96,3.75-2.19,5.14-.9,1.02-2.58-.2-3.49.38-1.83,1.16-2.48,9.06-6.5,2.53-3.41,2.68-10.67,4.57-15.05,5.02-1.91.2-7.03-1.52-8.01-2.96-1.19-1.74.44-5.1-1.42-6.58l-4.04-.48,2,2.49c-4.7,9-12.82,1.87-18.49,1.41-4.27-.34-8.48,1.36-13.79-.13-4.25-1.19-7.92-9.34-10.23-3.76l-3.99-2.05c-3.74,7.5-6.47,4.92-12.3,3.33-1.47-.4-3.36-.06-4.47-.53-2.6-1.1-5.14-4.88-8.72-4.77l-1.17,7.86c-2.82,1.4-9.56,4.07-11.44,6.06-.22.24-3.46,5.15-3.56,5.45-1.07,3.18-.27,7.47-1.93,10.03-1.81,2.79-6.89,2.05-5.92,8.61l-3.05-.6c-.59,3.93-4.69,4.05-3.93,7.59l3.35-1.1,2.14,3.08c1.59-2.18,5.75-5.22,5.51-.99l1.62-2.06c3.68.72,5.09.58,8.36-.93l-.99,8.99h-3.01s3,6,3,6c-1.45-.58-5.53.14-6.41-.21-1.9-.77-.71-3.57-3.59-2.77l-.02,3.99,3.01.5c-5.2,6.32-9.57,5.19-16.99,6.51l-.9-8.35c.9-2.95,5.2.68,3.88-2.14-1.4-3-3.8-1.37-3.92-1.57-.23-.37-2.2-7.73-2.2-8.45,0-.92,2.59-10.91,3.05-12.08,1.55-4,10.37-13.12,13.44-18.56s7.78-18.26,13.1-21.9c7.56-5.16,16.41-5.52,24.93-7.07,4.13-.75,8.12-3.18,12.13-3,3.25.15,4.81,1.97,7.61,2.47,4.7.84,11.04-.77,16.27.74,4.72,1.36,7.16,3.29,13.2,3.8,1.59.14,3.23-1.07,4.69-.75,2.36.52,3.23,4.25,3.91,4.63ZM379.9,210.1c-4.81.18-4.95,5.58-.87,7.37,1.92.84,4.08.38,6.03.97,4.87,1.49,7.2,3.84,12.93,1.55-4.79-6.96-14.74-.94-18.09-9.89ZM353.69,216.34c-1.77-.66-5.56-1.39-4.69,1.65,3.9-.2,5.02,4.98,9.99,4,1.23-1.01-4.93-5.51-5.3-5.65Z"/>
  <path d="M552.77,214.32c.38.23,0,2.37,1.57,1.55,2.53-.84,7.38-4.49,9.18-4.85,8.24-1.66,10.1,4.73,15.5-5.32,2.27-4.22,4.65,7.83,5.07,8.23.47.44,2.62-.37,3.7.28.62.37.58,2.3,1.78,2.61,1.5.39,10.9-1.38,11.44-.83-3.15,6.01,6.99,6.77,7.87,8.17.45.72-.22,2.44.38,3.56,1.1,2.05,10.55,6.2,4.72,8.81-3.06,1.37-3.91-2.35-4.67-2.51-1.59-.34-4.1.49-5.38-.46l-1.55-3.61c-2.5.66-5.52-1.08-7.66-.77-2.8.41-5.36,5.19-11,3.84-.4-.1-3.55-4.53-6.7-4.03l-3.47,6.61c-4.44.49-9.21-3.06-13.09-2.71-1.79.16-1.28,1.82-2.18,2.06s-8.1,1.21-8.78,1.11c-2.48-.34-2.57-4.96-7.98-4.12-3.8.59-2.45,6.59-6.98,6.1-2.13-.23-6.31-4.76-6.56-7.05-3.63,3.49-7.6.77-11.63.34-1.44-.16-3.15.9-4.8.69-2.55-.33-3.07-2.82-4.57-3.54-2.51-1.21-6.68.99-6.71,2.99-.02,1.41,4.54,8.49,4.74,10.01.37,2.86-2.29.64-3.01,2.01l5.99,3.02c-.24,6.24-10.06-2.57-10.51-3.5-1.07-2.24-.01-4.52-.47-6.37-.26-1.07-3.04,0-2.01-2.64l1.98-.99c-3.3.35-3.22-9.36-2.8-11.28.75-3.44,3.3-5.12,6.77-4.78l.05-4.96c-6.73-2.58-8.21,4.3-11.71,4.84-4.52.69-2.3-2.58-2.65-4.15-1.04-4.66-.21-4.81-.63-8.11-.34-2.69-3.82-7.1-1.92-11.46.97-.18,1.95-1,2.92-.63,1.84.72,8.16,10.28,11.45,12.55,5.08,3.5,9.74,3.14,14.54,4.48,8.86,2.46,21.9,8.27,31.16,6.97,2.76-.39,5.51-4.04,8.61-2.16Z"/>
  <path d="M547,512.01c-.29,4.13-5.24,2.95-4.46,8.13.76,5.03,6.34,4.25,9.05,7.77,2.18,2.84.06,5.62,4.19,5.24l.69,6.88,4.05.96-.53,3c4.18-1.23,9.12-1.23,9.99,4.01l-7-.99c.22,1.77,1.04,6.15.86,7.53-.71,5.63-.18,4.71-.21,8.96-.01,2.16-3.6,4.01.35,7.49l-10.99-.98-.07,2.88-6.94.12.99,2.99-4.47-.03-.47,2.53-3.07.51c1.94,3.16.95,6.75-2.98,6.99,1.15-3.32-3.01-3.22-2.89-5.29.06-1.03,1.27-2.46,1.48-3.72.24-1.42-.36-3.25-.03-4.04.92-2.21,5.09-3.6,3.55-8.83,3.15-2.03,9.01,1.42,11.92-.59,1.33-.92,1.19-5.83,4.95-5.58l-3.97-4.45c5.89-6,4.29-.62,5.18.24.84.8,4.09.19,3.82,3.26l1.97-1.54-4.11-9.41-3.34,1.01-.72-1.82-3.82.75,2.99-3.99-2.84-.11c1.36-6.79-9.29-3.71-6.16-9.89-8.92,2.06-10.7-5.75-13.01-12-1.8-.2-.02,1.83-2.42,2.09-1.27.14-2.75.02-4.03-.16-10.03-1.45-27.5-.12-39.08.02-7.87.09-16.37-1.24-25.03-1.96-15.23-1.26-58.8-7.99-69.41-17.56-2.11-1.9-.17-5.45-6.96-3.47-.46-.99-.4-2.57-.96-3.38-.97-1.41-3.92.67-3.11-2.59,1.87-.11,3.59.53,5.28,1.21,15.27,6.15,32.06,9.01,48.32,11.68,15.7,2.58,30.62,4.62,46.85,5.15,8.39.28,64.34-1.54,66.55.96Z"/>
  <path d="M233.25,222.74c.82.81,6.34,1.12,9,3.23,9.79,7.79,25.8,31.62,38.3,33.98,2.6.49,5.77-.23,8.46.05.8,3.23-2.38,3.47-3.58,6.07l-5.92-4.02c-4.07,2.79-6.71,10.6-.51,11.97l.03,1.48c-4.16,1.86-.83,9.95-3.02,14.5-4.36.12-2.41-4.59-3.23-7.26-.75-2.44-8.79-16.02-10.52-18.48-13.08-18.68-28.95-26.22-49.02-35.18-7.36-3.28-13.99-4.74-21.22-7.58-1.23-.48-12.48-7.29-7.49-7.51,3.61,1.42,7.48.54,10.94,1.06,3.98.59,5.86,2.99,12.02,1.93,2.19-.38,4.63-4.28,4.54,0l1.97.03c.75-5.55,7.93-8.42,1.01-13.57-1.15-.49-2.49,1.64-3.96,2.13-6.06,2-12.58,3.46-19.59,2.49-2.23-.31-3.43-1.77-5-2-3.01-.45-6.38.19-9.45-.05-.43-.44.37-7.32.97-8.35s2.15-.38,2.73-.9c4.37-3.91,10.77-16.9,16.94-21.64,10.26-7.88,21.53-7.83,25.88,5.86,3.15,9.93,1.71,11.59.43,20.46-1.68,11.72,2.07,10.99,8.08,18.06.77.91.69,2.71,1.22,3.23ZM212.5,172.02c-2.52,1.13-1.75,8,0,7.96,4.21-3.15,3.81-4.51,0-7.96ZM187.26,195.22c-3.54,6.95,14.61,8.29,18.31,4.85s4.11-16.06,1.95-20.09c-1.45-1.82-3,1.39-4.8,2.23-2.3,1.08-7.06,1.94-9.02,3.73-.95.87-3.66,6.61-4.73,8.32-.41.65-1.59.72-1.71.95ZM241.66,229.34c-3.41-2.95-8.34-4.23-12.35-6.14l-9.31,2.31c-.26,1.36,2.04,3.06,2.98,4,3.63,3.69,16.24,8.76,21.57,11.41,3.03,1.51,6.29,2.94,8.96,5.06,1.45-1.18-1.02-3.24-1.71-4.29-1.99-3.03-7.57-10.15-10.14-12.36ZM263.99,257c1.71-2.29-3.64-9.07-6.99-7.99-.97.88,5.05,8.14,6.99,7.99Z"/>
  <path d="M169.68,549.73c-2.66,11.85-4.59,24.65-5.88,37.55-.31,3.11-3.49,5.49-3.8,8.31-.4,3.64,3.73,8.01,3.9,13.03.08,2.52-.38,9.8-3.65,8.56-.82.72-.71,4.66-1.45,6.15s-2.75,1.52-2.83,2.26c-.15,1.35,1.63,5.83,3.04,6.92l-2.04.99c3.07,3.69.1,3.83-.03,6.94-.52,12.69.47,16.53-2.86,29.19-2.33,8.87,3.03,7.12,4.86,11.18,1.42,3.16.44,7.73,1.11,10.63,1.45,6.21,10.36,31.37,14.21,35.3,3.62,3.7,4.96,2.26,9.37,9.17,1.28,2,3.76,1.67,2.36,7.1-1.42.03-2.88.13-4.28-.22-3.16-.79-15.84-14.61-18.1-17.9-8.57-12.44-10.77-28.14-15.95-42.05-.91-2.44.42-6.2-2.65-5.86,6.68-4.95-.78-12.77.21-16.46.13-.48,2.18-1.24,2.65-5.12.69-5.67-1.04-9.96-.91-14.84s3.81-9.58,2.99-14c-.28-1.51-1.63-2.59-1.91-4.11-1.34-7.28,3.97-13.92,5.74-20.16,10.39-36.64,13.1-74.91,20.45-112.55,2.08-.86,2.3-8.69,4.24-7.74,2.07,1.02,1.86,7.53,1.56,9.55-.32,2.23-1.8,3.48-2,4.99-2.42,17.91-4.42,35.57-8.37,53.18Z"/>
  <path d="M450,166.01l-1,2.98c3.09-.2,6.38.37,9.45-.03,1.52-.2,2.58-1.79,4.09-1.94,1.38-.14,26.16,1.89,27.69,2.24,10.41,2.38,16.69,7.97,27.18,8.73,1.68.12,10.6,6.9,11.3,7.06,1.58.37,3.69-.69,5.44-.49,3.29.38,6.44,1.74,9.84,1.45-4.19,5.54-5.4,2.79-9.74,2.22-3.85-.51-12.16-.44-15.55-1.44-1.61-.48-6.03-4.67-6.42-4.75-3.84-.8-8.96-.35-13.33-1.49-15-3.91-20.69-10.12-38-4.09-2.01.7-3.28,3.03-4.68,3.4-1.95.52-4.84-.98-7.63-.8-13.67.86-33.73,12.26-50.07,9.02-11.55,1.06-26.03,5.35-37.14,5.95-2.94.16-7.24-1.19-9.69-.76-4.37.76-5.97,4.9-10.75,3.73l9.54-12.95,22.33-13.18-.88-1.85,14,1.98c-3.14.18-5.93,3.2-8.77,4.74-.93.51-2.83.15-4.19.81-3.62,1.74-5.67,8.34-13.04,5.45v4.02s-4,.98-4,.98c4.41,2.23,8.45-2.69,9.63-2.9s2.56,2.19,4.79,1.95c1.34-.14,2.51-1.69,4.16-1.97,9.92-1.66,18.82-4.18,28.87-5.11,7.99-.74,16.45-.57,24.62-2.39,1.23-.27,13.62-4.22,10.93-6.56-3.97.22-7.92-1.54-9.49,2.99-1.59-2.24-3.96-2.19-6.51-2.01,1.63-6.14,6.76-3.41,11.49-4.01,5.39-.68,9.98-2.56,15.52-.98Z"/>
  <path d="M742,240.02c.9,1.33-6.54,4.26-7.82,4.67-6.78,2.18-15.56,3.22-22.36,5.64-9.76,3.47-30.6,15.96-37.35,23.64-6.08,6.92-9.27,17.48-16.97,23.03-3.18-5.61-5.77-11.56-8.64-17.35-1.03-2.08-3.9-3.14-2.85-6.64,3.03-.95,7.02,1.2,9.46.97.46-.04,8.21-3.19,8.56-3.5,1.27-1.11,2.85-2.98,5.04-4.91,16.87-14.88,23.86-29.71,30.88-49.33.9-2.53,4.01-15.22,6.57-15.22,4.99,3.46,1.13,5.39.55,8.53-1.03,5.53.88,6.94,1.88,11.03.81,3.34-.5,4.17,2.07,7.93,7.75,11.33,20.13,7.08,31,11.52ZM704.3,232.76c-1.15-1.03-.02-4.84-4.3-3.76-.69,3.04-2.34,12.02-4.29,13.73-.7.61-2.17-.11-2.75.92-1.26,2.23.67,6.13-3.82,5.44l-.14,4.91,15.82-9.15.17-3.85-2.99-.99c1.71.17,3.74-.37,5.35-.02.63.14.83,3.61,2.64,2,.57-.51.56-4.5.06-5.33-.67-1.1-2.18-.26-2.8-.91-1.43-1.5-.97-1.22-2.95-3Z"/>
  <path d="M607.32,252.66c3.14,1.77,6.27,2.01,8.74,5.8.97,1.49.62,3.31,1.26,4.23.87,1.26,4.98,3.75,5.66,5.09,3.02,5.96-.11,7.24,8.48,11.27,5.21,2.45,6.81-.69,6.55,8.94l-6.44-.94-1.54,2.43,8.97,7.02c-4.4,2.76-9.16,3.8-13.44.46-5.7-4.45-6.25-16.58-15.03-22.97-12.43-9.05-23.26-11.28-38.06-13.93-4.82-.86-7.52,1.57-8.95,1.56-.7,0-4.2-2.47-6.28-1.85-1.54-5.21-3.03-3.63-5.42-4.84-.99-.51-.87-1.74-1.51-1.9-1.27-.31-5.39-.33-6.66-.05-1.04.23-.03,3.06-2.64,2.01v-7.99c2.56-.23,4.89-.22,6.5,1.99l1.05-2.02c2.89,1.72,7.18-.24,9.79.37s5.47,3.45,8.54,4.07,7.96-.67,11.11-.42l-1-7c2.52,1.01,5.14-.35,7.49-.09,6.24.7,17.65,5.82,22.82,8.74Z"/>
  <path d="M797.99,373l-.05,3.94c-3.97.38-18.6,3.78-20.73,6.33-.57.68-.01,2.45-.24,2.68-.65.65-3.88-.78-5.29-.62-2.44.28-4.41,3.13-5.48,3.57-2.04.84-8.45,1.27-9.22,1.7-.9.5-3.44,4.71-4.76,5.37-4.74,2.36-14.42,5.47-20.02,7.72-10.91,4.39-24.77,7.87-34.37,13.43-.84.48-.94,1.91-1.4,1.93-1.67-.39-3.48-1.03-4.19-2.77-3.41-8.28-1.24-15.9-3.22-24.27h10c-3.09,2.95-2.28,18.15,3.41,17.03,2.39-.47,4.62-3.68,7.41-4.76,3.15-1.23,6.91-.14,10.1-1.85,1.96-1.05,3.16-3.76,5.14-4.85,2.64-1.46,8.51-2.93,11.27-4.54,1.15-.67.34-2.36.81-2.82.45-.44,9.99-5.31,10.93-5.63,5.94-2.01,12.61-2.05,17.55-7.51l4.36,1.92v-5.99c7.62,1.75,13.72-6.12,20.28-2.78,3.09,1.57,3.25,5.03,7.72,2.77Z"/>
  <path d="M247.85,816.12c.62.36.56,3.6,3.67,3.89,1.3.12,9.64-.79,8.52-2.98,1.61,2.58,5.23.79,6.01,1.37,1.08.81.72,3.24,1.52,4.54,1.43,2.31,7.15,5.9,8.2,9.81,1.62,6.03-8.05,12.05,1.17,11.19-.71-8.36,11.09-6.63,16.63-9.83l24.93-5.13,1.49,3.52-10.71,6.26c-10.71,3.2-18.39,4.49-29.68,5.25-.67.04-.49,1.8-1.26,1.98-2.27.54-5.41-.63-7.7.17-1.17.41-5.85,6.27-9.06,5.88-.5-.06-.53-1.58-1.34-2-2.16-1.13-5.45,1.15-5.22-1.53l6.12-4.98c-.37-6.92,10.61-10.32,7.35-17.51-.52-1.14-2.35-2.78-3.76-2.8-10.11-.13-15.2,16.19-9.85,23.44l-1.46,2.28c-3.7.88-6.48-2.69-7.14-2.88-4.62-1.32-5.19-.77-10.08-2.94-5.65-2.51-3.79,1.03-5.8,1.74-4.19,1.49-13.58-.25-6.3-4.29,1.93-1.07,10.25-2.85,12.17-2.35s3.88,3.61,6.74,2.77c.29-3.28-.53-7.12.21-10.29s4.37-4.29,2.28-8.68c-.37-.77-1.57-1.3-1.97-2.04-1.94-3.6,2.95-4.68,4.34-3.86Z"/>
  <path d="M603,843c.07.04-.17,1.35.33,1.63,9.51,5.29,12.19,5.73,16.42,16.14.92,2.27,1.14,6.28,2.81,9.14,2.06,3.53,5.98,4.61,8.11.61-2.05-5.55-4.93-9.09-3.66-15.52,5.83.26,5.18,4.99,6.8,8.69,1.3,3,3.34,3.25,3.14,7.65-.27,5.89-2.78,8.19-8.39,8.7-8.74.79-31.57-.28-40.59-1.51-4.07-.55-6.96-2.71-10.72-3.28-5.79-.89-5.72,0-11-2.19-2.64-1.1-5.54-2.16-8.24-3.08,1.49-3.97,4.68,1.17,5.49-2.99,3.49,2.18,13.06,4.66,16.53,3.6,1.28-.39,2.93-2.42,3.48-2.42.89.01,9.73,9.33,13.38,6.72,4.75-3.4-9.47-13.75-4.98-19.48,4.88-4.2,5.09,1.61,7.09,4.07,1.19,1.47,2.86,2.5,4,4,2.89,3.8,4.36,10.87,10.5,10.6,5.05-.22,3.66-4.79,2.23-8.32-.48-1.18-5.52-11.06-5.98-11.51-.85-.83-6.06-1.16-8.31-2.2-3.37-1.56-6.27-6.56-8.45-7.55-2.43-1.1-6.03.57-6.98-1.52,3.05.69,15.39-.93,17,0Z"/>
  <path d="M267,336.01c.65,5.02-2.07,9.56-2.88,13.6-3.1,15.48-6.39,30.91-9.88,46.12-.42,1.83.07,3.89-.43,5.57-.56,1.87-3.53,3.16-4.37,5.71-.68,2.06.57,5.02-.6,7.3s-3.89.46-1.81,4.68c-4.23-.8-3.29,2.76-4.31,3.77-3.83,3.77-9.79,7.16-14.25,12.2-5.5,6.22-4.83,4.73-10.51,9.49-4.96,4.16-15.09,18.09-19.39,20.62-1.52.9-2.8.99-4.5.98l.38,6.01,8.55,2.46c.64,2.53-1.95.89-2.76,1.65-.54.51-.57,2.89-1.36,4.19-5.98,9.82-10.87-7.08-19.88-2.37,1.24-5.56,6.08-6.64,9.05-9.44,15.52-14.64,29.91-30.48,45.28-45.21,5.63-5.39,12.31-6.97,14.05-16.54,1.03-5.64-.34-14,.65-19.26,1.59-8.39,9.45-22.77,11.35-30.52.8-3.24.02-8.91.8-12.32.38-1.67,4.47-11.01,6.8-8.69Z"/>
  <path d="M771.41,269.61c5.27,13.97,12.78,29.39,18.29,44.18,1.16,3.11,6.73,16.98,6.87,18.73.15,1.95-2.95,7.95-2.01,10.53,1.48,4.07,10.58,4.83,11.96,6.93.95,1.44.66,6.72,1.58,9.22.39,1.07,4.04,3.55,2.91,6.8-5.91,1.9-12.28-2.1-16.02-6.48s-.6-11.78-3.2-16.84c-1.77-3.44-5.99-7.87-7.48-12.48-5.52-17.05-11.89-35.11-17.22-50.97-1.79-5.31-6.01-16.93-5.8-21.95.1-2.54,2.68-6.21,5.17-3.23,2.25,2.7,3.31,11.16,4.96,15.56ZM801.83,349.18c-.95-.58-4.92-.37-5.89.27-3.64,2.42,3.2,12.01,7.51,10.53,2.72-1.03-1.06-10.46-1.62-10.8Z"/>
  <path d="M519.87,309.11l.13,7.88c-3.99,1.43-5.5-2-7.73-2.77-1.56-.54-3.59-.03-5.32-.68-2.2-.82-4.65-3.05-7.46-3.54l.51,2.98c-2.81.2-5.69,1.01-8.49.07-6.43-2.16-3.55-4.51-4.62-5.93-.8-1.05-7.04.16-7.38-3.13-2.44,2.87-7.01,2.05-10.51,3.01-1.4,2.36,4.17,5.68,3,6.98-1.89,2.09-2.04-3.07-2.98-1.99-1.25,1.44-3.18,5.13-2.01,6.99h-3s.99-3.99.99-3.99l-4.95-.11-.06-2.91-3.99,1,1.99-2.98c-1.45-1.09-10.25-1.02-12.03-.43-1.62.54-1.57,3.82-4.46.68-1.61,3.18-5.09,1.78-5.35,1.94-.46.27-.71,2.58-1.67,2.82-.42.1-4.12-1.97-4.26-2.22-1.06-1.79.17-5.03,1.32-6.75.41-.61,5.83-4.86,6.21-4.98,6.72-2.1,36.62-3.17,43.7-2.02,6.14,1,13.98,5.13,21.65,3.53l16.78,6.54ZM466.97,307.05c-4.79-.71-3.45-3.28-6.97.45l6.99,6.5-.02-6.95Z"/>
  <path d="M805.99,189.01c.57,2.13-1.87,2.63-2.39,3.97-.36.94.21,2.24-.35,3.69-1.41,3.59-4.86,5.84-3.26,11.34-4.45-2.85-7.57,5.89-9.21,6.77-1.11.6-2.98-.09-4.76.78s-11.15,15.97-12.42,18.54c-.88,1.78-.68,4.11-2.6,5.41l1.92.93-.92,2.56,11.99-.5-11.48,10.5c-2.2-1.45-2.77-3.42-2.52-6-1.38,2.29-6.2-2.26-6.76-3.21-2.31-3.97,9.01-21.09,11.13-25.91,2.42-5.49,3.85-11.33,6.14-16.86l.99-.98c2.58,3.74,4.12-.03,7.5-.03-4.44-5.07-3.97-17.43,4.93-12.41,2.35,1.32,3.26,4.79,6.52,4.48,2.48-.24,2.97-3.38,5.54-3.05Z"/>
  <path d="M306.98,578.02c3.34,5.63,11.48,8.24,16.34,13.17.87.88,2.2.84,1.68,2.81l-12.28-2.05c-4.71,3.89-.77,5.27-.67,7.54.03.62-1.82.31-2.03,1.17-.33,1.36.25,3.07-.2,4.63s-2.7,2.26-2.87,4.25c-.2,2.26,3.16,5.17,2.13,9.91l-2.87.69c-2.66,4.88-1.69,10.03-2.42,15.05-.64,4.44-2.03,7.05-2.76,12.23-.93,6.57-3.18,6.25-3.86,8.2-.95,2.69.63,7.08-.31,9.76-.48,1.36-2.6,1.27-2.87,2.32-.79,3.05.84,8.22-.18,11.6l-4.79,6.69c.17-3.11-.31-6.37,0-9.48.37-3.54,2.38-7.09,2.66-9.19,1.77-13.13,2.92-26.26,5.42-39.72,2.09-11.24,6.65-28.72,6.99-40.1.1-3.35-3.05-8.6,2.89-9.48Z"/>
  <path d="M505.73,855.32c.26.07.28,1.51.96,1.67,2.7.62,5.23-1.07,7.58-.78,3.68.45,7.42,5.11,12.08,3.81.81-.23.48-3.43,2.58-1.94.12.08-.09,1.36.35,1.58,1.64.86,4.01.54,5.7,2.34-.4-5.28,2.86-2.76,3-3,.33-.53-1.86-3.21,1-4.48,3.54-1.58,9.68-.2,12.35,2.42,1.34,1.32-.41,3.48,3.65,3.55l-7,2.49,2.99-2.98h-5.99s1.02,4.98,1.02,4.98c3.9-2.23,8.75.97,9.97,5l-2.99-1v3.01s-1.99-.02-1.99-.02c-.16-3.77-7.39-2.31-10.29-3.2-1.64-.51-5.09-4.05-5.95-4.45-.61-.28-3.25,1.17-4.28-1.33l-2.05,2.89c-6.4-1.36-14.66.07-20.89-.95-4.14-.68-12.43-2.38-16.63-3.37-3.48-.82-8.04-4.93-11.48-5.52-2.79-.48-6.08.53-8.74-.26-3.63-1.08-8.62-8.6-6.58-12.67,7.2-3.51,12.83,7.83,18.09,9.25,2.67.72,4.68-.75,7.19-.36,2.87.44,13.71,2.55,16.32,3.32Z"/>
  <path d="M222.7,816.3c2.25,3.21,1.99,11.05.86,14.76-.84,2.73-4.77,10.39-7.55,10.95l3.99,2.98-7.53-2.08c-3.4-.3-2.22,2.42-2.96,2.09-4.13-3.8-12.72-1.94-17.8-3.03-.7-.15-.77-1.6-1.5-1.87-5.34-2.03-9.66-2.39-13.19-7.61l6.78-4.2,7.21-2.28-.99,7.99,8.98-4.99.44,7.06c4.87,3.35,5.85-.4,7.9-1.71,6.28-4.01,10.1-7.13,9.71-15.69-6.8-4.65-12.16.2-16.56,5.33-3.46-3.97,6.26-10.76,8.95-10.89,2.41-.12,11.9,1.26,13.26,3.2Z"/>
  <path d="M557.99,704.01c-1.15,4.82.17,7.43,1.01,11.99.25.28,6.45-3.02,6.71-3.28,1.12-1.09.03-4.78,4.28-3.71.75,7.03-4.16,9.89-7.7,15.05l-8.29-1.04,3,.99c-.18,3.18-3.2,6.16-5.65,7.87-1.94,1.36-5.05.11-4.4,3.38l-2.95-.26,3,2c-.57,4.29-2.13,7.72-7,7l1,2.98c-5.01-1.22-4.27,4.64-9.99,3.01l1.77,3.5c-3.82,2.41-2.49,4.51-3.09,6.29-.1.29-3.21,1.3-1.69,5.22l-5.99.99c-.25-6.48,1.91-11.57,6.99-15.5l-1.99-.99c4.53-3.51,7.89-11.99,13.99-11.5l-.11-1.92-1.9-.58v-1.95c.67-.72,4.65-3.49,4.8-3.82,1.12-2.46,2.18-7.67,4.19-11.26.93-1.67,6-7.63,6.11-8.16.51-2.55-2.93-6.36,3.92-6.31Z"/>
  <path d="M383.01,266c-6.09,1.24-12.72,2.16-18.66,3.85-6.54,1.86-12.84,5.03-19.35,6.16l5.03,7.46c2.83.84,10.93,1.81,8.51,6.53l-2.21,1.87c-2.66,1.01-2.08-1.48-3.08-1.79-2.86-.88-9.04-1.21-11.19-2.63-.36-.24-5.58-5.35-6.07-5.93-4.2-4.83-1-9.53,3.49-12.56s13.75-6.3,18.98-7.02c6.41-.88,15.31-.09,22.06-.95,2.84.22,2.65,2.6,2.5,4.99Z"/>
  <path d="M178.01,637c-2.55,5.82,6.48,11.41,8.22,16.27,2.34,6.55,4.59,22.01,4.39,29.09-.1,3.57-1.31,4.25-4.76,4.1l-1.88-1.21c-1.26-4.55.7-9.18.07-13.81-.38-2.77-2.68-4.98-2.21-8.27-1.45-2.33-14.57,2.69-15.84-4.72-1.11-6.52,4.64-5.19,5.04-8.99.28-2.72-6.29-11.9-5.03-16.46,5.28-1.12,7,4.78,12,4Z"/>
  <path d="M401.99,288.99c-4.29,1.6-7.87-1.09-12.5-1.08-5.44.02-10.54.04-15.99,0-6.3-.04-15.32,4.37-8.5-8.41,6.28-11.78,25.74-11.67,33-1.01,2.18,3.21,2.25,7.11,3.99,10.49Z"/>
  <path d="M289.12,700.87c.6.76,3.93.65,2.9,4.49l1.96.62,6.13-12.87,3.89-.12c.35,4-.5,8.54.05,12.45.68,4.73,2.96,7.27,1.9,14-.31,1.98-2.23,3.11-2.07,6.09.11,2.1,1.97,1.31,2.1,1.49.36.48-5.63,8.62.02,10.46l-2.01,5.52h-2.99c2.07-6.54-5.69-11.17-1.37-16.51-2.09-1.03-.72-7.49-3.12-6.49-6.45,2.68-3.51,8.16-3.42,12.49.04,2.1-1.27,4.26-1.08,5.96.25,2.35,4.05,4.97.49,8.56-2.39.86-4.23-2.88-4.53-4.58-.29-1.61,3.33-1.15,2.05-5.79-.2-.73-3.59-.66-1.97-2.61.12-.14,1.4.16,1.68-.24.64-.92.66-19.89.32-22.34-.3-2.17-1.73-3.42-1.94-5.05-.94-7.18-1.38-12.39.9-19.39,1.51.06,2.03,4.61,2.02,5.54-.04,2.42-2.17,7.99-1.91,8.33ZM301.99,705c-5.32-.43-7.39,1.69-6.98,7,2.85-2.87,2.88-.74,3.99-.57,3.06.46,3.33-4.4,3-6.43Z"/>
  <path d="M405.7,242.35c.24.13,1.53,4.94,2.35-.29l1.44-.06c1.67,4.14,8.32,3.61,12.51,5,.55,2.8-1.03,1.95-3.01,2l1,3.99c-1.71.51-2.25-1.25-3.51-1.5-17.52-3.43-38.89,2.8-58.02.55-1.51-.18-2.48-.04-3.44-1.54,4.14-8.86,15.19-4.93,22.83-6.16,6.38-1.03,7.82-1.25,14.48-1.7,4.31-.29,8.95-2.72,13.36-.29Z"/>
  <path d="M475.6,205.64c-.09.22-1.41.24-1.58,1.05-1.18,5.39.71,14.04-2.24,20.09l-7.78,3.21c.91-11.76,8.45-29.46-2.65-37.91l-4.85,4.91c-3.12-3.49-9.49-6.76-4.96-11.96,5.33-6.13,14.23,2.41,19.41,4.51,2.72,1.11,6.9-.37,8.58,3.49.69,1.58-2.93,10.11-3.93,12.6Z"/>
  <path d="M587,297l-37-.99c-.64-6.24-.09-8.11,4.53-11.98,12.68-10.61,31.52-3.43,32.47,12.97Z"/>
  <path d="M507.01,416.99c-.58-1.44,1.03-4.1.73-4.79-.04-.09-1-.1-1.63-1.06-.36-.55.07-1.87-.16-2.13-.29-.33-3.87,2.05-3.96-1.51l6-1.54-1-10.97c-4.76.47-1.34,5.26-4.98,5.01l3.99,2.49v3.49s-2.98,0-2.98,0c.58-3.25-1.14-3.58-4.01-4l.15-1.88,1.9-.62-2.05-5.48,3.99-.02c.03-2.16-4.41.54-3.02-3.49.09-.27,3.8-3.84,4.04-3.98,2.16-1.23,8.16-.59,10.29.67,4.34,2.55,2.91,9.32,3.92,13.07.45,1.67,2.9,3.15,2.57,5.06-.45,2.59-11.56,14.04-13.8,11.68Z"/>
  <path d="M307,660.5c.05-.26,1.71-1.2,1.97-3.03,1.01-7.15-.36-16.83,7.03-20.49v-.96c-1.93-.24-6.41-4.34-4.98-5.98,4.18.42,4.17-3.59,7.4-5.09,1.58-.73,3.41.35,4.57-1.45l-6-.5c.76-1.54.31-2.95.96-4.51.27-.64,2.73-2.71,1.79-.24l-.23,1.77h1.47c3.21-4.47-.9-7.37-1.98-12l3.98,1.99-.88-5.42c.42-1.82,4.73-2.35,4.91-.94v3.36s4-.48,4-.48c-1.35,4.51-.38,10.32-3.36,14.14-1.06,1.36-3.4,1.39-4.35,4.01-.51,1.39.67,4.44.23,6.37-.63,2.72-2.68,4.35-3.32,6.68-2.85,10.35-4.22,20.91-7.76,30.24l-5.46,7.04c.6-4.3-.82-10.51,0-14.5Z"/>
  <path d="M284,800c-1.5-4.83,2.56-7.65,3.05-11.45.96-7.52-1.7-21.58-.07-27.85.27-1.02,2.28-.88,2.84-2.34.49-1.28.27-8.38.69-8.37,4.16.13,1.81,6.03,2.05,8.16.55,4.81,1.72,14.69,2.86,18.96.26.98,5.79,5.03.3,7.24-3.35,1.35-3.71-2.39-5.22-.35-.56,2.18-2.12,4.39-2.44,6.56-1.87,12.52,7.75,4.78,15.82,6.34l-.95-8.35,1.05-9.54c.44,3.14-.62,7.37.04,10.29.11.51,3.19,1.91,3.02,6.26-.06,1.41-1.4,4.45-2.55,4.45h-20.5Z"/>
  <path d="M477,385.99l-.05,3.97c-1.32.08-2.63-.03-3.88.59-6.84,3.38-9.73,4.27-16.34,6.69-1.81.66-9.55,5.59-10.25,5.53-.81-.07-3.12-3.68-5.49-2.78-.42-.39,4.3-4.9,5.08-5.41,4.89-3.19,10.36-3.22,15.15-4.85,2.19-.75,5.44-4.18,7.14-4.9,3-1.26,8.32-1.61,11.62-2.85l.99,3.01,1.52-2.99,1.49,1.99c-.81-5.13,3.07-3.05,4.99-.49-2.9,4.7-7.32,2.95-11.98,2.49Z"/>
  <path d="M835.81,172.82c-1.3,2.2-8.06.93-11.11,4.13-2.53,2.65-3.09,12.47-8.4,10.32-7.02-2.84-.45-6.77,1.7-9.76.99-1.38,1.26-3.06,2.46-4.54,2.56-3.15,6.9-5.18,10.53-6.98l-1.89-5.27,3.41-3.7c2.74,2.49.33,5.99.66,8.3.31,2.12,4.26,4.77,2.64,7.51Z"/>
  <path d="M494.28,822.74c.67,1.02,3.39.76,2.72,3.26-6.04-.94-10.63,1.97-15.4,5.14-.54.36-4.29,6.27-5.59,1.34-.74-2.81,8.03-12.63,9.88-15.11.87-1.18.7-3.4,1.38-4.11s4.42-.99,5.24-3.25c1.14,3.15-.04,9.98,1.77,12.73Z"/>
  <path d="M473,490c.12.08.02,1.35.65,1.9,2.02,1.76,3.02,1.28,2.35,5.08-1.05,1.07-24.38-.19-27.27-1.22-1.56-.56-2.53-1.59-2.78-3.26l1.54-2.5c3.78.77,23.97-1.02,25.5,0Z"/>
  <path d="M512.72,834.33c6.57,2.85,13,3.18,20.48,6.99,2.38,1.21,4.53,1.46,3.79,4.68-3.1,1.14-5.39-1.62-7.54-1.95-3.18-.48-19.26-.92-20.85-2.07-2.07-1.51-2.3-5.48-2.61-7.97,2.17.21,4.64-.58,6.72.32Z"/>
  <path d="M500.44,336.51c1.66,1.81,2.24,4.08,3.45,5.1,1.8,1.52,4.09,1.09,5.13,1.89s.61,2.66,1.26,3.28c.57.54,2.2-.31,2.73.9.59,1.37.11,3.69,1.99,5.31l-3.01.02,1.01,2.99-3,2c-3.94-3.33-7.37-8.7-12.98-9.05v-4.94s2.98.99,2.98.99c1.05-1.25-5.15-8.35-.01-9.99-.13.61.06,1.06.46,1.5Z"/>
  <path d="M279.22,303.19c-.67,1.19.12,3.44-.47,5.03-3.21,8.63-10.56,16.04-9.74,25.78h-2.99c.64-3.08.46-7.45,1.24-10.26.58-2.1,5.56-10.78,5.72-11.46,1.21-5.31-1.83-15.83,4.02-19.29-.7,4.22,2.48,5.84,4.99,8.5-.04.76-2.45,1.12-2.77,1.69Z"/>
  <path d="M576.81,559.21c.68.4,2.8,5.56,5.19,3.29l-1.99-3.5,3.84,1.14v4.71c-4.64.96-9.03,6.59-14.12,5.16-.61-.17-5.29-4.86-3.55-6.3.76-2.26,9.08-5.41,10.63-4.5Z"/>
  <path d="M518.99,773c-.94,1.81,1.1,7.55.85,7.86s-1.83.35-2.28,1.15c-.61,1.09-2.66,5.11-3.04,6.02-.7,1.7-.28,4.35-.66,4.83-.32.4-3.63.34-4.91,1.59-2.21,2.16.78,6.32-2.96,5.53l-.72-3.05h-1.51c-3.96-.57,4.34-6.59,4.85-7.31,2.16-3.05,2.66-10.03,8.38-9.65l-3-3.49,4.99-3.5Z"/>
  <path d="M810.99,167c.39,2.63-2.14,3.04-4,3.01,2.85,7.04-1.25,7.64-5.9,10.63-.88.57-3.75,5.31-6.64,1.41-2.47-3.34,8.22-13,10.99-14.14,1.8-.74,3.69.28,5.55-.91Z"/>
  <path d="M557.99,702.99c-5.5.55-2.88-2.56-3.35-4.3-1.03-3.74-1.23-6.37-2.06-9.77-.6-2.46-6.13-8.72-1.98-9.88,9.54-2.66,6.46,19.02,7.4,23.95Z"/>
  <path d="M294,807.01c-3.39,7.72-10.05,10.14-16.99,4.48-1.02-2.35,8.67-5.12,7-8.49h1.48c2.3,2.71,4.82,4.38,8.51,4.01Z"/>
  <path d="M458.99,234c-.06,2.38,1.37,6.16.05,8.35-.78,1.29-4.04-.41-3.07,3.64-2.88-.98-4.46-.26-6.47,2-5.63-7.27,3.33-12.54,9.49-13.98Z"/>
  <path d="M176.76,617.24c1.2,1.22.64,7.89,4.22,9.26-2.92,4.7-7.27.26-11.04-1.12-1.4-5.05,2.89-5.08,2.06-9.38.15-.19,4.38.87,4.76,1.25Z"/>
  <path d="M519.83,564.15c.55,2.56.61,5.8-1.82,7.36-9.04,4.52-12.63-14.9,1.82-7.36Z"/>
  <path d="M503.99,153.01c-1.13,2.93-6.1,1.49-8.3,2.01-.55.13-.94,3.35-5.98,1.98-.91-.25-1.76-3.89-4.65-3.08l-.06-2.92c6.63-1.38,12.59.2,19,2.01Z"/>
  <path d="M593,613.01c-1.03,4.27-8.92,4.46-9.79,5.2-.62.54-.06,2.93-2.24,4.25-.91.55-6.63,1.87-6.96,1.53l1.14-4.83,4.86-.17-1.01-2.99c5.03-.68,8.67-4.13,14-3Z"/>
  <path d="M396,160.01l-2,2.98,6,1.02c.45,5.95-6.68,6.06-11.01,4.98l.04-7.94,6.96-1.04Z"/>
  <path d="M436.31,269.36c-.32.21-.32,1.14-.32,1.62l-1.48.03c-.85-1.86-1.21-2.4-3.51-2.02l1.02-2.99-3.01-1.99,5.96-1.99,2.03,2.98v-4.01c9.18,1.98,3.87,5.36-.68,8.36Z"/>
  <path d="M541,494.99c-3.48-.9-7.46,1.29-10.5,1.1-1.26-.08-5.81-1.69-6.49-3.08,2.71.59,4.37-1.42,6.57-1.93.84-.19,2.06.56,2.91.43,1.04-.16,1.91-1.48,3.02-1.5,1.86-.04,5.46,4.17,4.49,5Z"/>
  <path d="M549.27,193.73c-.83-.82-.96-2.7-1.83-3.68l1.1-2.04c4.09.72,8.03.7,10.44,4.53-1.01,4.21-7.33,3.55-9.71,1.19Z"/>
  <path d="M518.66,809.71c-.11.25-2.48.94-1.74,3.18-2.31.63-4.69-.37-5.98-2.33-3.76-5.72,11.75-10.01,7.72-.84Z"/>
  <path d="M437.25,410.83c1.06.95,4.49-1.43,2.28,5.22-7.37,2.9-5.09-5.02-8.53-9.04l5.99-3.01c-.43,1.64-1.02,5.67.26,6.82Z"/>
  <path d="M407,558.01c2.51-.96,1.86,1.48,2.22,1.69,4.03,2.36,1.8-2.81,4.28-4.67,2.96,1.94,2.52,5.9,2.09,9.03-6.24,3.15-7.99-.19-8.58-6.05Z"/>
  <path d="M293.99,291.01c.78,5.89-3.11,4.33-4.01,5-.12.09.91,1.67.58,3-1.59,6.32-9.56.39-7.57-1.99,3.85-.1,6.84-1.8,7.15-5.85l3.85-.16Z"/>
  <path d="M249.92,441.94c-2.51,2.04-5.94-4.96-5.96-7.43-.03-2.75,4.4-.81,5.54-3.5-.16,1.98,2.1,4.46,2.3,5.7.04.27-1.66,5.06-1.88,5.24Z"/>
  <path d="M504.09,802.95l2.87.08c.71,3.31-1.17,5.01-3.47,6.97l-4-5.96-3.49,2.97c-.76-4.82,5.47-4.48,7.49-8l.59,3.95Z"/>
  <path d="M299.99,486.99l2.01,5.52c-3.22.83-.89,5.46-5.05,3.04-1.23-.72-1.48-2.73-2.16-3.24-.23-.17-3.1.29-3.78-1.82l5.99-.48v-3.01s3,0,3,0Z"/>
  <path d="M489.01,329.99c-7.93.18,1.01,4.23.99,7l-10-2,1.01-4.01,2.9.95,2.63-3.92,2.47,1.97Z"/>
  <path d="M571,843c.2,1.49-.04,2.36-.95,3.55-3.09,4.01-3.35-.84-4.19-1.45-.7-.51-9.11,3.57-8.86-2.1h14Z"/>
  <path d="M619,599.01c-1.72,5.04-8.37,4.24-11.36,5.95-1.15.66-.31,2.49-.76,2.88-.62.55-2.33-.13-3.06.23-1.04.51-6.94,5.95-7.82,4.92l.18-3.88c3.81.6,2.3-2.48,4.41-4.09,1.63-1.24,3.83.26,5.62-.21s3.86-3.26,6.68-2.92l.11-3.9,6,1.02Z"/>
  <polygon points="398.89 557.12 399.05 562.54 394 563.01 393.99 559 390.01 562 390.12 558.11 398.89 557.12"/>
  <path d="M485.98,230c-4.35,3.61-5.61-9-1.47-10s1.96,9.59,1.47,10Z"/>
  <path d="M215.97,465.96l-6.96,4.04.78-2.85-1.77-1.63,5.01-4.5c.76-.48,4.07,3.35,2.94,4.94Z"/>
  <path d="M506.99,497.99c-2.12.07-4.24.07-6.37-.12-1.32-.12-6.13-.55-6.62-1.87,4.21-.53,11.17-4.39,12.99,1.98Z"/>
  <path d="M576.11,860.08l1.95-.63c-2.96-7.14,3.48-2.23,4.83,1.05-.92,2.32-5.98,3.29-6.88.98l.1-1.4Z"/>
  <path d="M276.98,496.01c2.43,3.77.66,4.96-.48,8.99-3.23-2.01-4.22-8.78.48-8.99Z"/>
  <path d="M325.99,482.99l-2-3-3.99,2,1.49-6.98c2.31,2.09,4.87,4.5,4.49,7.97Z"/>
  <path d="M638.94,529.04c.14.1.82,2.61.86,3.31l-3.79,5.64c0-2.93-1.58-5.55-.09-8.39.16-1.02,2.73-.75,3.02-.56Z"/>
  <path d="M673.99,511c-3.09,3.09-3.43-9.74.5-9,2.8.53-1.09,7.29-.5,9Z"/>
  <path class="cls-1" d="M499.86,443.13l1.15,3.87c1.73,1.31,11.88-9.1,15.46-.98,1.15,2.61.96,23.24-.42,25.54-.69,1.15-2.23,2.16-3.59,2.41-3.14.59-16.66.53-20.02.07-1.1-.15-12.43-3.63-13.01-3.99-5.32-3.32-2.17-24.94,3.57-27.53,4.38-1.98,11.8,1.48,16.85.61Z"/>
  <path class="cls-1" d="M470.88,443.12c.63,6.19-1.66,12.22-.95,18.46.34,3,3.57,7.3,1.11,8.98-2.81,1.92-30.88-.4-35.13-4.21-3.33-11.82-.16-29.96,15.54-27.29,2.56.44,3.56,2.21,5.29,2.69,4.53,1.26,9.63-.05,14.14,1.37Z"/>
  <path class="cls-1" d="M428.47,438.54c.34.41,1.32.42,1.51,1.16.79,3.87,1.14,20.23-2.19,22.06-1.86,1.02-18.13,1.32-20.75-.3-3.51-9.64-8.76-23.63,3.52-28.42,7.49-.63,12.93-.49,17.92,5.49Z"/>
  <path class="cls-1" d="M546.78,440.28c.39.41.07,1.74.53,2.35.75.99,2.29.63,2.72,2.83.47,2.43.39,13.4.03,16.09-1.33,9.97-17.34,10.46-23.46,5.35-.3-.25-3.67-5.05-3.69-5.37-.42-5.15,3.33-11.21,3.11-16.53l7.98,2.01,3.16-7.85,9.63,1.12Z"/>
  <path class="cls-1" d="M396.7,437.77c-.09.17-1.45.1-1.66.93-1.45,5.63-.87,13.69.39,19.38.4,1.83,2.64,4.22,2.46,5.28-.06.32-3.61,4.97-3.88,5.14-2.08,1.27-6.19.53-7.97-1.02-2.54-2.22-3.74-14.87-4.87-19.13-.84-3.16-3.46-5.73-3.12-9.27.87-1.2,7.8-1.56,9.2-2.08,1.27-.46,1.02-2.36,2.34-2.77,1.9-.59,9.28-.47,7.12,3.55Z"/>
  <path class="cls-1" d="M556.11,470.89c-2.02-3.73.56-6.37.81-9.48.36-4.56-1.68-13.59,3.78-15.2,18.16-5.33,11.59,30.4-4.6,24.67Z"/>
  <path class="cls-1" d="M410.63,482.14c8.17.2,19.28-1.12,23.34,7.37-2.53,3.23-6.42.61-9.49.5-6.63-.24-20.75,3.09-14.99-7.02l1.14-.85Z"/>
  <path class="cls-1" d="M571,436c.25.1,2.61,4.18,2,5-.52.51-9.23-.47-11.33.02-.91.21-.28,2.31-2.14,2.04-3.01-.44-5.19-4.16-4.53-7.05,3.54.78,13.48-1.07,16,0Z"/>
  <polygon class="cls-1" points="362.99 450 357.94 447.45 361.54 440 365.94 443.64 362.99 450"/>
  <path class="cls-1" d="M370.99,446l.13,4.55-6.12,1.43c1.5-2.6,1.98-6.79,5.99-5.99Z"/>
  <path class="cls-1" d="M589.61,350.48c2.9,1.95,4.97.39,7.12,1.81,1.04.69,4.45,5.24,6.75,6.74,1.83,1.19,4.19,1.28,6.27,2.62,4.51,2.9,5.25,8.28,8.24,11.83,6.85,8.14,21.55,9.7,28.65,16.93,1.81,1.84,2.09,1.79,3.13,2.76.83.77.59,9.98,7.22,6.83l-2,12.01-1.98-1.02.98,7.01-6.85-1.15c.52-4.99-3.76-8.77-4.72-12.78-.43-1.8-.25-6.66-.57-6.99-.3-.3-1.97.21-2.58-.3-.44-.37-.79-2.82-2.2-4.36-11.38-12.43-34.99-20.53-49.13-32.87-4.47-3.91-8.88-8.53-4.45-14.53,1.9,1.95,3.83,3.93,6.11,5.46Z"/>
  <path class="cls-1" d="M589.77,373.25c.41.24.59,1.64,1.32,2.11,6.15,3.95,11.88,7.26,17.61,10.4,4.24,2.32,12.55,3.72,12.3,9.24-2.66,2.52-21.18-11.49-24.63-13.86-1.33-.91-3.32-1.02-4.88-2.12-2.21-1.56-3.94-4.24-6.48-5.52.75-.95,3.9-.75,4.76-.24Z"/>
  <path class="cls-1" d="M685.66,346.29c-1.7-4.68-4.97-11.91-7.79-17.44-1.89-3.71-7.04-9.18-7.81-13.41-1.53-8.43,3.05-14.65,7.63-21.19,15.23-21.72,33.85-29.57,58.52-36.54,2.67-.75,5.46-4,8.86-2.29,1.65,11.74,7.03,22.37,10.59,33.42,1.12,3.49,1.61,8.18,2.65,11.35,5.05,15.33,10.51,30.57,16.52,45.54.29,6.92-6.78,4.91-12,6.6-10.52,3.41-23.71,12.36-34.62,16.38l-31.69,8.29c-5.97-1.59-3.76-6.33-4.74-10.27-1.52-6.12-3.97-14.54-6.11-20.43Z"/>
  <path class="cls-1" d="M379.9,210.1c3.36,8.95,13.3,2.94,18.09,9.89-5.73,2.29-8.06-.06-12.93-1.55-1.95-.59-4.11-.13-6.03-.97-4.08-1.79-3.94-7.2.87-7.37Z"/>
  <path class="cls-1" d="M353.69,216.34c.37.14,6.53,4.64,5.3,5.65-4.97.98-6.09-4.2-9.99-4-.86-3.04,2.92-2.31,4.69-1.65Z"/>
  <path class="cls-1" d="M187.26,195.22c.12-.23,1.3-.3,1.71-.95,1.07-1.71,3.78-7.45,4.73-8.32,1.95-1.79,6.71-2.65,9.02-3.73,1.8-.84,3.35-4.05,4.8-2.23,2.16,4.03,1.58,16.81-1.95,20.09s-21.85,2.09-18.31-4.85Z"/>
  <path class="cls-1" d="M241.66,229.34c2.56,2.22,8.15,9.33,10.14,12.36.69,1.05,3.17,3.11,1.71,4.29-2.67-2.13-5.92-3.55-8.96-5.06-5.33-2.65-17.94-7.72-21.57-11.41-.93-.95-3.24-2.64-2.98-4l9.31-2.31c4,1.91,8.94,3.19,12.35,6.14Z"/>
  <path class="cls-1" d="M263.99,257c-1.94.15-7.95-7.11-6.99-7.99,3.34-1.07,8.7,5.7,6.99,7.99Z"/>
  <path class="cls-1" d="M212.5,172.02c3.81,3.45,4.21,4.81,0,7.96-1.75.04-2.52-6.83,0-7.96Z"/>
  <path class="cls-1" d="M704.3,232.76c1.98,1.77,1.52,1.5,2.95,3,.62.65,2.13-.19,2.8.91.51.83.52,4.82-.06,5.33-1.81,1.61-2.01-1.87-2.64-2-1.61-.35-3.64.19-5.35.02l2.99.99-.17,3.85-15.82,9.15.14-4.91c4.49.69,2.56-3.21,3.82-5.44.59-1.03,2.06-.31,2.75-.92,1.94-1.71,3.6-10.69,4.29-13.73,4.27-1.08,3.14,2.74,4.3,3.76Z"/>
  <path class="cls-1" d="M801.83,349.18c.56.34,4.34,9.76,1.62,10.8-4.31,1.48-11.14-8.11-7.51-10.53.97-.64,4.93-.85,5.89-.27Z"/>
  <path class="cls-1" d="M466.97,307.05l.02,6.95-6.99-6.5c3.52-3.73,2.18-1.16,6.97-.45Z"/>
  <path class="cls-1" d="M301.99,705c.34,2.03.06,6.89-3,6.43-1.11-.17-1.14-2.3-3.99.57-.41-5.3,1.66-7.42,6.98-7Z"/>
</svg>